<svg width="63" height="63" viewBox="0 0 63 63" fill="none" xmlns="http://www.w3.org/2000/svg">
<g clip-path="url(#clip0)">
<path d="M62.7434 26.8684L52.1989 13.1708C51.8086 12.6642 51.0967 12.5392 50.557 12.8824L43.749 17.2121H34.8699C34.7551 17.2121 34.6407 17.2366 34.5301 17.2688L27.6457 19.2506L20.5023 17.2967L13.5612 12.8824C13.0305 12.545 12.3317 12.6594 11.9371 13.1487L0.274043 27.5952C-0.145086 28.1143 -0.0758718 28.8723 0.429774 29.3072L6.54271 34.568L12.0269 41.9585C10.423 43.6672 10.4543 46.3622 12.1231 48.0315C12.8628 48.7708 13.8034 49.1884 14.771 49.2855C14.7373 49.5047 14.72 49.7273 14.72 49.9532C14.72 51.1192 15.1743 52.2156 15.9986 53.0399C16.8234 53.8647 17.9197 54.3189 19.0858 54.3189C19.1017 54.3189 19.117 54.318 19.1324 54.3175C19.1319 54.3473 19.1305 54.3766 19.1305 54.4064C19.1305 55.5725 19.5847 56.6688 20.409 57.4936C21.2338 58.318 22.3302 58.7722 23.4963 58.7722C23.7265 58.7722 23.9543 58.7534 24.1778 58.7188C24.2725 59.6897 24.6912 60.6347 25.4333 61.3768C26.284 62.2281 27.402 62.6534 28.52 62.6534C29.638 62.6534 30.756 62.2281 31.6073 61.3768L32.2749 60.7092L32.5551 60.9351C33.3991 61.7527 34.495 62.1612 35.5909 62.1612C36.7089 62.1612 37.8269 61.7359 38.6777 60.8846C39.5462 60.0161 39.9716 58.8697 39.9538 57.7292C41.0939 57.7465 42.2407 57.3216 43.1093 56.4535C43.9768 55.5854 44.4022 54.4401 44.3854 53.2999C45.5731 53.3187 46.6997 52.8626 47.5404 52.0219C48.4089 51.1534 48.8343 50.007 48.8165 48.8664C49.9576 48.8837 51.1035 48.4588 51.972 47.5903C53.4543 46.108 53.6451 43.8167 52.5459 42.1253L56.5502 33.7389L62.5704 28.5584C63.0679 28.1301 63.1438 27.388 62.7434 26.8684ZM13.1661 15.5592L18.1572 18.7329L7.29973 31.9604L2.94887 28.2157L13.1661 15.5592ZM13.8702 43.6042L15.3766 42.0979C15.4223 42.0522 15.4703 42.009 15.5194 41.9686C15.814 41.7283 16.1706 41.585 16.5484 41.5509C16.559 41.5499 16.5701 41.5499 16.5806 41.5494C16.6345 41.5451 16.6883 41.5422 16.7426 41.5427C17.2588 41.5499 17.7385 41.7609 18.0942 42.1363C18.7921 42.8741 18.7546 44.0796 18.0106 44.8237L16.5499 46.2844C15.8111 47.0231 14.609 47.0231 13.8702 46.2844C13.1315 45.5451 13.1315 44.343 13.8702 43.6042ZM17.7457 51.2927C17.3877 50.9351 17.1906 50.4593 17.1906 49.9532C17.1906 49.447 17.3877 48.9712 17.7457 48.6131L20.6667 45.6922C21.2261 45.1327 22.1057 44.9794 22.8209 45.3202C23.5583 45.6715 23.9731 46.4718 23.8649 47.2769C23.8072 47.7066 23.6073 48.1113 23.3006 48.4184L20.4259 51.2927C20.0678 51.6508 19.5919 51.8479 19.0858 51.8479C18.5797 51.8479 18.1038 51.6508 17.7457 51.2927ZM22.1562 55.746C21.7981 55.3884 21.601 54.9125 21.601 54.4064C21.601 53.9003 21.7981 53.4244 22.1562 53.0663L25.0766 50.1454C25.6751 49.5475 26.6349 49.4187 27.3674 49.845C28.0365 50.2343 28.3869 50.9986 28.272 51.7599C28.2091 52.1786 28.0101 52.5722 27.7106 52.8717L24.8363 55.746C24.4782 56.1041 24.0024 56.3011 23.4963 56.3011C22.9901 56.3011 22.5143 56.1041 22.1562 55.746ZM27.18 59.6297C26.4412 58.8909 26.4412 57.6888 27.18 56.95L28.6863 55.4437C28.732 55.398 28.7796 55.3552 28.8286 55.3148C28.8301 55.3139 28.831 55.3129 28.832 55.312C29.0771 55.113 29.365 54.9798 29.6722 54.9217C29.6794 54.9207 29.6866 54.9197 29.6938 54.9188C29.7467 54.9092 29.8005 54.9015 29.8543 54.8967C29.876 54.8947 29.8976 54.8947 29.9197 54.8933C29.9639 54.8909 30.0077 54.888 30.0524 54.8885C30.5681 54.8957 31.0483 55.1062 31.4039 55.4821C31.4477 55.5282 31.4885 55.5763 31.526 55.6258C32.0942 56.3684 32.0177 57.4715 31.3126 58.1771L29.8596 59.6301C29.1208 60.3689 27.9187 60.3684 27.18 59.6297ZM50.2248 45.8431C49.4861 46.5824 48.284 46.5819 47.5452 45.8431C47.5183 45.8162 47.4899 45.7912 47.4611 45.7677L39.5178 37.7408C39.0377 37.2558 38.2556 37.2519 37.7707 37.7321C37.2857 38.2118 37.2818 38.9938 37.7615 39.4788L45.7908 47.5917C45.7918 47.5927 45.7927 47.5936 45.7937 47.5946C46.5325 48.3334 46.5325 49.536 45.7937 50.2747C45.4356 50.6328 44.9598 50.8299 44.4536 50.8299C43.947 50.8299 43.4712 50.6328 43.1136 50.2747L37.7423 44.8477C37.2626 44.3627 36.4806 44.3589 35.9956 44.8386C35.5106 45.3187 35.5068 46.1007 35.9865 46.5857L41.2756 51.9296C41.3025 51.9633 41.3313 51.9955 41.3621 52.0262C42.1009 52.765 42.1009 53.9676 41.3621 54.7063C40.6228 55.4451 39.4203 55.4446 38.6815 54.7059L35.75 51.7436C35.2698 51.2586 34.4878 51.2543 34.0028 51.7345C33.5179 52.2142 33.514 52.9962 33.9937 53.4812L36.8435 56.3603C36.8704 56.3939 36.8992 56.4266 36.9305 56.4573C37.6692 57.1961 37.6692 58.3987 36.9305 59.1375C36.1917 59.8767 34.9896 59.8762 34.2508 59.1375C34.1658 59.0524 34.0658 58.987 33.9706 58.914C33.8899 58.8524 33.8687 58.8097 33.9091 58.7116C33.95 58.6121 34.011 58.5222 34.0519 58.4223C34.097 58.3107 34.1336 58.1959 34.1691 58.0805C34.3585 57.4701 34.4143 56.8135 34.3292 56.18C34.1658 54.9644 33.4972 53.8676 32.484 53.1735C31.9365 52.7991 31.303 52.5535 30.6464 52.4612C30.9646 51.0577 30.5825 49.536 29.5885 48.4857C28.7705 47.6215 27.6654 47.1365 26.4768 47.1202C26.4335 47.1197 26.3903 47.1197 26.3465 47.1202C26.373 45.9859 25.9606 44.8587 25.1785 44.0325C24.36 43.1683 23.255 42.6833 22.0668 42.667C21.7135 42.6622 21.3569 42.6996 21.0127 42.779C20.8657 41.7556 20.3499 40.8088 19.5689 40.1315C18.7926 39.4596 17.8164 39.0866 16.7767 39.0722C15.6823 39.0563 14.6071 39.4601 13.7943 40.194L9.01902 33.7595L20.4432 19.8418L24.0841 20.8377L19.329 29.2284C18.7541 30.2431 18.609 31.4207 18.92 32.5444C19.231 33.6687 19.9606 34.604 20.9752 35.1789C21.0387 35.2149 21.1026 35.2491 21.1675 35.2817C21.1723 35.2842 21.1771 35.2866 21.1824 35.289C21.353 35.374 21.5285 35.4471 21.7063 35.5086C22.5345 35.7956 23.429 35.8268 24.2917 35.5884C25.4155 35.2774 26.3509 34.5473 26.9257 33.5331L30.0158 28.0801L35.5332 28.4714L50.2253 43.163C50.9636 43.9022 50.9636 45.1044 50.2248 45.8431ZM50.7367 40.1806L36.954 26.3983C36.9281 26.3719 36.9007 26.3469 36.8723 26.3234C36.6738 26.158 36.4277 26.058 36.1682 26.0398L29.4126 25.5606C28.9454 25.5284 28.4811 25.7769 28.2504 26.184L24.7762 32.3152C24.5268 32.7554 24.1206 33.0722 23.6328 33.2073C23.1454 33.3423 22.634 33.2789 22.1932 33.0294C21.7529 32.78 21.4362 32.3738 21.3011 31.8859C21.1661 31.3981 21.229 30.8867 21.479 30.4464L26.1168 22.2614L27.9961 21.7206C28.0086 21.7168 28.0206 21.712 28.0331 21.7081L35.0473 19.6827H43.5221L54.1022 33.1323L50.7367 40.1806ZM55.7206 31.1933L45.9365 18.7488L50.9299 15.5731L60.0724 27.4486L55.7206 31.1933Z" fill="#EB4E59"/>
<path d="M38.1669 14.8925C38.4832 14.8925 38.7995 14.7719 39.0407 14.5306L47.4791 6.09226C47.9617 5.60968 47.9617 4.82766 47.4791 4.34509C46.9965 3.86251 46.2145 3.86251 45.7319 4.34509L37.2936 12.7834C36.811 13.266 36.811 14.048 37.2936 14.5306C37.5349 14.7719 37.8511 14.8925 38.1669 14.8925Z" fill="#EB4E59"/>
<path d="M23.9589 14.5306C24.2002 14.7719 24.5165 14.8925 24.8328 14.8925C25.1486 14.8925 25.4648 14.7719 25.7061 14.5306C26.1887 14.048 26.1887 13.266 25.7061 12.7834L17.2678 4.34509C16.7852 3.86251 16.0032 3.86251 15.5206 4.34509C15.038 4.82766 15.038 5.60968 15.5206 6.09226L23.9589 14.5306Z" fill="#EB4E59"/>
<path d="M31.4999 14.8925C32.182 14.8925 32.7352 14.3393 32.7352 13.6573V6.67387C32.7352 5.99183 32.182 5.4386 31.4999 5.4386C30.8179 5.4386 30.2646 5.99183 30.2646 6.67387V13.6573C30.2646 14.3393 30.8179 14.8925 31.4999 14.8925Z" fill="#EB4E59"/>
<path d="M30.3601 2.19657C30.5562 2.67193 31.045 2.98388 31.5608 2.95696C32.0703 2.93052 32.5178 2.58638 32.6754 2.1014C32.8335 1.61258 32.6615 1.0555 32.252 0.744038C31.8343 0.425847 31.2517 0.408063 30.8148 0.696934C30.3274 1.01897 30.1385 1.66016 30.3601 2.19657Z" fill="#EB4E59"/>
</g>
<defs>
<clipPath id="clip0">
<rect width="63" height="63" fill="white"/>
</clipPath>
</defs>
</svg>
