<svg width="64" height="64" viewBox="0 0 64 64" fill="none" xmlns="http://www.w3.org/2000/svg">
<g clip-path="url(#clip0)">
<path d="M36.0002 64H28.0002C26.1335 64 24.0002 62.4 24.0002 59.2V53.6C24.0002 50.9334 22.6668 48.5334 20.5335 46.6667C15.7335 42.9334 13.3335 37.6 13.3335 31.7334C13.6002 21.6 21.8668 13.6 31.7335 13.3334C36.8002 13.3334 41.6002 15.2 45.0668 18.6667C48.5335 22.1334 50.6668 26.9334 50.6668 32C50.6668 37.6 48.2668 42.9334 43.7335 46.4C41.3335 48.2667 40.0002 51.2 40.0002 53.8667V60C40.0002 62.1334 38.1335 64 36.0002 64ZM32.0002 16C23.4668 16 16.2668 23.2 16.0002 31.7334C16.0002 36.8 18.1335 41.6 22.1335 44.5334C25.0668 46.9334 26.6668 50.1334 26.6668 53.6V59.2C26.6668 59.7334 26.6668 61.3334 28.0002 61.3334H36.0002C36.8002 61.3334 37.3335 60.8 37.3335 60V53.8667C37.3335 50.4 39.2002 46.6667 42.1335 44.2667C45.8668 41.3334 48.0002 36.8 48.0002 32C48.0002 27.7334 46.4002 23.7334 43.2002 20.5334C40.2668 17.6 36.2668 16 32.0002 16Z" fill="#EB4E59"/>
<path d="M38.6667 56H25.3333C24.5333 56 24 55.4667 24 54.6667C24 53.8667 24.5333 53.3334 25.3333 53.3334H38.6667C39.4667 53.3334 40 53.8667 40 54.6667C40 55.4667 39.4667 56 38.6667 56Z" fill="#EB4E59"/>
<path d="M31.9998 8C31.1998 8 30.6665 7.46667 30.6665 6.66667V1.33333C30.6665 0.533333 31.1998 0 31.9998 0C32.7998 0 33.3332 0.533333 33.3332 1.33333V6.66667C33.3332 7.46667 32.7998 8 31.9998 8Z" fill="#EB4E59"/>
<path d="M49.8666 15.4666C49.5999 15.4666 49.0666 15.4666 48.7999 15.1999C48.2666 14.6666 48.2666 13.8666 48.7999 13.3333L52.5332 9.59995C53.0666 9.06662 53.8666 9.06662 54.3999 9.59995C54.9332 10.1333 54.9332 10.9333 54.3999 11.4666L50.6666 15.1999C50.6666 15.1999 50.1332 15.4666 49.8666 15.4666Z" fill="#EB4E59"/>
<path d="M62.6667 33.3333H57.3333C56.5333 33.3333 56 32.8 56 32C56 31.2 56.5333 30.6666 57.3333 30.6666H62.6667C63.4667 30.6666 64 31.2 64 32C64 32.8 63.4667 33.3333 62.6667 33.3333Z" fill="#EB4E59"/>
<path d="M53.5999 54.9333C53.3332 54.9333 52.7999 54.9333 52.5332 54.6666L48.7999 50.9333C48.2666 50.4 48.2666 49.6 48.7999 49.0666C49.3332 48.5333 50.1332 48.5333 50.6666 49.0666L54.3999 52.8C54.9332 53.3333 54.9332 54.1333 54.3999 54.6666C54.3999 54.9333 54.1332 54.9333 53.5999 54.9333Z" fill="#EB4E59"/>
<path d="M10.3998 54.9333C10.1331 54.9333 9.59977 54.9333 9.33311 54.6666C8.79977 54.1333 8.79977 53.3333 9.33311 52.8L13.0664 49.0666C13.5998 48.5333 14.3998 48.5333 14.9331 49.0666C15.4664 49.6 15.4664 50.4 14.9331 50.9333L11.1998 54.6666C10.9331 54.9333 10.6664 54.9333 10.3998 54.9333Z" fill="#EB4E59"/>
<path d="M6.66667 33.3333H1.33333C0.533333 33.3333 0 32.8 0 32C0 31.2 0.533333 30.6666 1.33333 30.6666H6.66667C7.46667 30.6666 8 31.2 8 32C8 32.8 7.46667 33.3333 6.66667 33.3333Z" fill="#EB4E59"/>
<path d="M14.1331 15.4667C13.8664 15.4667 13.3331 15.4667 13.0664 15.2L9.33311 11.2C8.79977 10.6667 8.79977 9.86668 9.33311 9.33335C9.86644 8.80002 10.6664 8.80002 11.1998 9.33335L14.9331 13.0667C15.4664 13.6 15.4664 14.4 14.9331 14.9333C14.6664 15.2 14.3998 15.4667 14.1331 15.4667Z" fill="#EB4E59"/>
<path d="M42.6665 33.3333C41.8665 33.3333 41.3332 32.8 41.3332 32C41.3332 26.9333 37.0665 22.6667 31.9998 22.6667C31.1998 22.6667 30.6665 22.1333 30.6665 21.3333C30.6665 20.5333 31.1998 20 31.9998 20C38.6665 20 43.9998 25.3333 43.9998 32C43.9998 32.8 43.4665 33.3333 42.6665 33.3333Z" fill="#EB4E59"/>
</g>
<defs>
<clipPath id="clip0">
<rect width="64" height="64" fill="white"/>
</clipPath>
</defs>
</svg>
