<svg width="78" height="78" viewBox="0 0 78 78" fill="none" xmlns="http://www.w3.org/2000/svg">
<path d="M52.4389 42.162L45.7994 39.2111C45.3303 39.0027 45.0275 38.5364 45.0275 38.0233V36.2C47.2578 34.4229 48.6914 31.6864 48.6914 28.6197V26.0531C49.4261 25.6471 49.9126 24.8626 49.9126 23.9838V23.7348C49.9126 18.3911 45.5651 14.0437 40.2215 14.0437H37.7791C32.4355 14.0437 28.088 18.3911 28.088 23.7348V25.9948C28.088 26.7672 28.4205 27.4669 28.9998 27.9146C29.0981 27.9905 29.2015 28.0572 29.3092 28.115V28.6195C29.3092 31.6862 30.7426 34.4228 32.9728 36.1997V38.0231C32.9728 38.5362 32.6698 39.0025 32.2009 39.2109L25.5614 42.1618C23.387 43.1282 21.9819 45.2902 21.9819 47.6697V62.8133C21.9819 63.4443 22.4935 63.9559 23.1245 63.9559C23.7555 63.9559 24.2671 63.4443 24.2671 62.8133V47.6698C24.2671 47.5375 24.2765 47.4066 24.2903 47.2768L27.3496 50.3362C27.8257 50.8124 28.088 51.4454 28.088 52.1189V62.8134C28.088 63.4445 28.5996 63.956 29.2306 63.956C29.8616 63.956 30.3732 63.4445 30.3732 62.8134V52.1189C30.3732 50.8351 29.8734 49.6282 28.9655 48.7204L25.3183 45.073C25.6469 44.732 26.0411 44.4494 26.4896 44.25L33.0171 41.3489L37.8579 46.1897V62.8133C37.8579 63.4443 38.3694 63.9559 39.0004 63.9559C39.6315 63.9559 40.143 63.4443 40.143 62.8133V46.1898L44.9838 41.3491L51.5111 44.25C51.9596 44.4494 52.3539 44.732 52.6825 45.0731L49.0352 48.7204C48.1274 49.6282 47.6275 50.8351 47.6275 52.1189V62.8134C47.6275 63.4445 48.1391 63.956 48.7701 63.956C49.4011 63.956 49.9127 63.4445 49.9127 62.8134V52.1189C49.9127 51.4455 50.1749 50.8124 50.6511 50.3362L53.7103 47.2769C53.724 47.4067 53.7335 47.5373 53.7335 47.6697V62.8133C53.7335 63.4443 54.2451 63.9559 54.8761 63.9559C55.5071 63.9559 56.0187 63.4443 56.0187 62.8133V47.6698C56.0182 45.2904 54.6133 43.1283 52.4389 42.162ZM39 44.1007L34.7525 39.8531C35.0755 39.3097 35.2578 38.6809 35.2578 38.0233V37.5583C36.41 38.0425 37.6743 38.3107 39.0001 38.3107C40.326 38.3107 41.5901 38.0426 42.7422 37.5585V38.0233C42.7422 38.6811 42.9245 39.3097 43.2476 39.8532L39 44.1007ZM39.0001 36.0254C34.9166 36.0256 31.5942 32.7033 31.5942 28.6197V28.1058C32.3072 27.8232 33.0031 27.3735 33.6693 26.7588C34.1329 26.3309 34.162 25.608 33.7339 25.1442C33.306 24.6807 32.5833 24.6516 32.1194 25.0795C31.5479 25.6071 30.9769 25.9479 30.4227 26.0926C30.4093 26.0961 30.3994 26.0976 30.3924 26.0982C30.3842 26.0822 30.373 26.0487 30.373 25.9949V23.7349C30.373 19.6513 33.6954 16.329 37.779 16.329H40.2213C44.3051 16.329 47.6272 19.6513 47.6272 23.7349V23.984C47.6272 24.021 47.605 24.0532 47.5757 24.059C40.7338 25.4102 37.3021 22.8635 36.1443 21.7057C35.6981 21.2595 34.9746 21.2595 34.5285 21.7057C34.0823 22.1519 34.0823 22.8754 34.5285 23.3215C38.0766 26.8695 43.254 26.9335 46.406 26.5548V28.6195C46.406 32.7031 43.0837 36.0254 39.0001 36.0254Z" fill="#EB4E59"/>
<path d="M20.6033 35.9474V33.5045C20.6033 30.5238 19.0543 27.8998 16.7202 26.3898C16.8643 25.9274 16.9396 25.4431 16.9396 24.9561C16.9396 22.3059 14.7836 20.1499 12.1334 20.1499C9.48326 20.1499 7.32729 22.306 7.32729 24.9561C7.32729 25.4492 7.40194 25.9288 7.54636 26.3901C5.21245 27.8999 3.66357 30.5239 3.66357 33.5045V35.9469C3.66357 38.8334 5.11587 41.3857 7.32714 42.9156V45.4282C7.32714 45.9238 7.05185 46.3692 6.60869 46.5909L2.65673 48.5668C1.01796 49.3864 0 51.0335 0 52.8658V62.8137C0 63.4447 0.511571 63.9563 1.14258 63.9563C1.77359 63.9563 2.28516 63.4447 2.28516 62.8137V53.36L4.1465 55.2213C4.62258 55.6976 4.88491 56.3305 4.88491 57.0041V62.8137C4.88491 63.4447 5.39648 63.9563 6.02749 63.9563C6.6585 63.9563 7.17007 63.4447 7.17007 62.8137V57.0041C7.17007 55.7203 6.67008 54.5134 5.76241 53.6056L3.1718 51.015C3.15931 51.0025 3.1459 50.9916 3.13311 50.9799C3.29566 50.8364 3.47801 50.7115 3.6788 50.6109L7.63076 48.635C7.83323 48.5337 8.02168 48.4141 8.19733 48.2813L10.9909 51.075V62.8139C10.9909 63.4449 11.5024 63.9564 12.1334 63.9564C12.7645 63.9564 13.276 63.4449 13.276 62.8139V51.0748L16.0697 48.2811C16.2455 48.4141 16.4338 48.5337 16.6363 48.6349L17.726 49.1798C17.8901 49.2619 18.0643 49.3008 18.2362 49.3008C18.6553 49.3008 19.0588 49.0692 19.259 48.669C19.5413 48.1046 19.3125 47.4183 18.7481 47.1361L17.6584 46.5912C17.215 46.3695 16.9397 45.9241 16.9397 45.4287V42.916C19.151 41.3862 20.6033 38.8337 20.6033 35.9474ZM12.1334 22.4351C13.5236 22.4351 14.6544 23.5661 14.6544 24.9561C14.6544 25.1092 14.6407 25.2592 14.6145 25.4062C13.8293 25.1652 12.9965 25.0347 12.1334 25.0347C11.2716 25.0347 10.4398 25.1648 9.65587 25.4052C9.62951 25.2582 9.61245 25.1089 9.61245 24.9561C9.61245 23.5659 10.7433 22.4351 12.1334 22.4351ZM12.1334 27.32C15.5437 27.32 18.3182 30.0945 18.3182 33.5047V33.9188C13.5612 35.3752 10.7262 31.7565 10.6051 31.5979C10.4063 31.333 10.1024 31.1673 9.77211 31.1438C9.44183 31.1207 9.11733 31.2415 8.88318 31.4756C7.79255 32.5662 6.72431 33.0923 5.95284 33.3462C6.03739 30.009 8.77639 27.32 12.1334 27.32ZM12.1334 48.9856L9.49317 46.3453C9.57025 46.0507 9.61245 45.7436 9.61245 45.4284V44.0336C10.4091 44.2826 11.2559 44.4168 12.1334 44.4168C13.0109 44.4168 13.8578 44.2826 14.6544 44.0336V45.4284C14.6544 45.7436 14.6966 46.0508 14.7737 46.3453L12.1334 48.9856ZM12.1334 42.1316C8.72322 42.1316 5.94873 39.3571 5.94873 35.9469V35.7102C6.8599 35.5009 8.21089 35.0144 9.62022 33.881C10.1188 34.3514 10.8315 34.9285 11.739 35.4235C12.8124 36.0089 14.2949 36.5505 16.1057 36.5505C16.7938 36.5505 17.5301 36.4705 18.3084 36.2868C18.1312 39.5396 15.4296 42.1316 12.1334 42.1316Z" fill="#EB4E59"/>
<path d="M75.3435 46.1244L68.9492 42.9272C68.506 42.7055 68.2308 42.2601 68.2308 41.7646V40.1454C69.7275 38.8165 70.6731 36.8799 70.6731 34.7257V33.4252C70.6995 33.4252 70.7254 33.4259 70.7517 33.4259C71.3828 33.4259 71.8943 32.9144 71.8943 32.2833V29.841C71.8943 25.8441 68.6425 22.5923 64.6456 22.5923H62.2033C58.2064 22.5923 54.9546 25.8441 54.9546 29.841V32.2833C54.9546 32.9144 55.4662 33.4259 56.0972 33.4259C56.1066 33.4259 56.134 33.4256 56.1758 33.4239V34.7257C56.1758 36.88 57.1215 38.8166 58.6183 40.1455V41.7648C58.6183 42.2604 58.343 42.7058 57.8997 42.9273C57.3353 43.2095 57.1064 43.8958 57.3887 44.4602C57.5889 44.8606 57.9925 45.0921 58.4116 45.0921C58.5833 45.0921 58.7575 45.0533 58.9216 44.9713C59.1241 44.87 59.3125 44.7504 59.4882 44.6176L62.2819 47.4113V62.8137C62.2819 63.4447 62.7934 63.9563 63.4245 63.9563C64.0555 63.9563 64.567 63.4447 64.567 62.8137V47.411L67.3606 44.6173C67.5364 44.7503 67.7247 44.8699 67.9271 44.971L74.1146 48.0648L72.2379 49.9415C71.3302 50.8494 70.8302 52.0562 70.8302 53.34V62.8134C70.8302 63.4444 71.3418 63.956 71.9728 63.956C72.6038 63.956 73.1154 63.4444 73.1154 62.8134V53.34C73.1154 52.6667 73.3776 52.0335 73.8538 51.5573L75.6315 49.7796C75.6854 49.9863 75.715 50.2019 75.715 50.4231V62.8134C75.715 63.4444 76.2265 63.956 76.8575 63.956C77.4886 63.956 78.0001 63.4444 78.0001 62.8134V50.4231C78.0003 48.591 76.9823 46.9439 75.3435 46.1244ZM57.2396 30.9057V29.8408H57.2397C57.2397 27.104 59.4664 24.8773 62.2033 24.8773H64.6456C67.3825 24.8773 69.6092 27.104 69.6092 29.8408V31.11C64.6423 30.842 61.6449 28.9092 61.6158 28.8902C61.4225 28.7613 61.2019 28.6982 60.9824 28.6982C60.6874 28.6982 60.3949 28.8122 60.174 29.0329C59.0808 30.1262 58.0097 30.6524 57.2396 30.9057ZM63.4245 45.3219L60.7842 42.6816C60.8613 42.387 60.9035 42.0798 60.9035 41.7646V41.5213C61.689 41.8137 62.5383 41.9743 63.4245 41.9743C64.3106 41.9743 65.16 41.8137 65.9454 41.5213V41.7646C65.9454 42.0798 65.9875 42.387 66.0647 42.6816L63.4245 45.3219ZM63.4245 39.6892C60.6876 39.6892 58.4609 37.4627 58.4609 34.7257V32.8837C59.2612 32.564 60.1935 32.0556 61.1423 31.2473C62.3422 31.8716 64.8525 32.9506 68.388 33.3071V34.7257C68.388 37.4626 66.1613 39.6892 63.4245 39.6892Z" fill="#EB4E59"/>
</svg>
