<svg width="67" height="67" viewBox="0 0 67 67" fill="none" xmlns="http://www.w3.org/2000/svg">
<path d="M12.5071 11.6837C13.0004 11.6837 13.4004 11.2837 13.4004 10.7904V8.11038C13.4004 7.61703 13.0004 7.21704 12.5071 7.21704C12.0138 7.21704 11.6138 7.61703 11.6138 8.11038V10.7904C11.6138 11.2837 12.0138 11.6837 12.5071 11.6837Z" fill="#EB4E59"/>
<path d="M12.5071 17.9371C13.0004 17.9371 13.4004 17.5371 13.4004 17.0438V14.3638C13.4004 13.8705 13.0004 13.4705 12.5071 13.4705C12.0138 13.4705 11.6138 13.8705 11.6138 14.3638V17.0438C11.6138 17.5371 12.0138 17.9371 12.5071 17.9371Z" fill="#EB4E59"/>
<path d="M8.04031 13.4704H10.7203C11.2137 13.4704 11.6136 13.0705 11.6136 12.5771C11.6136 12.0838 11.2137 11.6838 10.7203 11.6838H8.04031C7.54696 11.6838 7.14697 12.0838 7.14697 12.5771C7.14697 13.0705 7.54696 13.4704 8.04031 13.4704Z" fill="#EB4E59"/>
<path d="M14.2937 13.4704H16.9737C17.4671 13.4704 17.8671 13.0705 17.8671 12.5771C17.8671 12.0838 17.4671 11.6838 16.9737 11.6838H14.2937C13.8004 11.6838 13.4004 12.0838 13.4004 12.5771C13.4004 13.0705 13.8004 13.4704 14.2937 13.4704Z" fill="#EB4E59"/>
<path d="M13.4004 44.737C13.4004 44.2436 13.0004 43.8436 12.5071 43.8436C12.0138 43.8436 11.6138 44.2436 11.6138 44.737V47.417C11.6138 47.9103 12.0138 48.3103 12.5071 48.3103C13.0004 48.3103 13.4004 47.9103 13.4004 47.417V44.737Z" fill="#EB4E59"/>
<path d="M12.5071 50.097C12.0138 50.097 11.6138 50.497 11.6138 50.9904V53.6704C11.6138 54.1637 12.0138 54.5637 12.5071 54.5637C13.0004 54.5637 13.4004 54.1637 13.4004 53.6704V50.9904C13.4004 50.497 13.0004 50.097 12.5071 50.097Z" fill="#EB4E59"/>
<path d="M8.04031 50.097H10.7203C11.2137 50.097 11.6136 49.697 11.6136 49.2037C11.6136 48.7104 11.2137 48.3104 10.7203 48.3104H8.04031C7.54696 48.3104 7.14697 48.7104 7.14697 49.2037C7.14697 49.697 7.54696 50.097 8.04031 50.097Z" fill="#EB4E59"/>
<path d="M14.2937 50.097H16.9737C17.4671 50.097 17.8671 49.697 17.8671 49.2037C17.8671 48.7104 17.4671 48.3104 16.9737 48.3104H14.2937C13.8004 48.3104 13.4004 48.7104 13.4004 49.2037C13.4004 49.697 13.8004 50.097 14.2937 50.097Z" fill="#EB4E59"/>
<path d="M40.6472 14.3637C42.3713 14.3637 43.7738 12.9612 43.7738 11.237C43.7738 9.51288 42.3713 8.11035 40.6472 8.11035C38.923 8.11035 37.5205 9.51288 37.5205 11.237C37.5205 12.9612 38.9233 14.3637 40.6472 14.3637ZM40.6472 9.89702C41.3862 9.89702 41.9872 10.498 41.9872 11.237C41.9872 11.976 41.3862 12.577 40.6472 12.577C39.9082 12.577 39.3072 11.976 39.3072 11.237C39.3072 10.498 39.9084 9.89702 40.6472 9.89702Z" fill="#EB4E59"/>
<path d="M22.7805 37.5904C24.5046 37.5904 25.9071 36.1878 25.9071 34.4637C25.9071 32.7396 24.5046 31.337 22.7805 31.337C21.0563 31.337 19.6538 32.7396 19.6538 34.4637C19.6538 36.1878 21.0566 37.5904 22.7805 37.5904ZM22.7805 33.1237C23.5195 33.1237 24.1205 33.7247 24.1205 34.4637C24.1205 35.2027 23.5195 35.8037 22.7805 35.8037C22.0415 35.8037 21.4405 35.2027 21.4405 34.4637C21.4405 33.7247 22.0417 33.1237 22.7805 33.1237Z" fill="#EB4E59"/>
<path d="M25.0139 9.89702C25.5073 9.89702 25.9073 9.49706 25.9073 9.00368C25.9073 8.51031 25.5073 8.11035 25.0139 8.11035C24.5206 8.11035 24.1206 8.51031 24.1206 9.00368C24.1206 9.49706 24.5206 9.89702 25.0139 9.89702Z" fill="#EB4E59"/>
<path d="M8.93386 28.657C9.42723 28.657 9.82719 28.257 9.82719 27.7636C9.82719 27.2703 9.42723 26.8703 8.93386 26.8703C8.44049 26.8703 8.04053 27.2703 8.04053 27.7636C8.04053 28.257 8.44049 28.657 8.93386 28.657Z" fill="#EB4E59"/>
<path d="M30.3738 23.297C30.8672 23.297 31.2671 22.897 31.2671 22.4036C31.2671 21.9103 30.8672 21.5103 30.3738 21.5103C29.8804 21.5103 29.4805 21.9103 29.4805 22.4036C29.4805 22.897 29.8804 23.297 30.3738 23.297Z" fill="#EB4E59"/>
<path d="M55.387 50.9903C55.8804 50.9903 56.2803 50.5904 56.2803 50.097C56.2803 49.6036 55.8804 49.2037 55.387 49.2037C54.8936 49.2037 54.4937 49.6036 54.4937 50.097C54.4937 50.5904 54.8936 50.9903 55.387 50.9903Z" fill="#EB4E59"/>
<path d="M58.9773 6.59051C57.3394 5.70299 55.2841 6.3138 54.3965 7.95195C53.9666 8.74568 53.8713 9.65911 54.1285 10.5243C54.2985 11.0958 54.6109 11.5988 55.0308 11.9999L53.0608 15.6364L51.6605 14.8777C51.4521 14.765 51.2073 14.7391 50.9804 14.8069C50.7533 14.8744 50.5624 15.0294 50.4496 15.2378L46.1386 23.1951L43.2812 21.647C42.9672 21.477 42.5818 21.5101 42.3015 21.7318C36.5178 26.3075 33.0858 32.6343 32.1014 40.5361C32.0558 40.9012 32.2387 41.2568 32.5623 41.4321L36.1495 43.3755L32.2684 50.5662C32.1981 50.6964 32.1612 50.8424 32.1612 50.9905V55.2234L30.0711 58.9416C30.0548 58.9704 30.0443 59.0008 30.0315 59.0305H7.14724C6.6539 59.0305 6.25391 59.4305 6.25391 59.9239C6.25391 60.4172 6.6539 60.8172 7.14724 60.8172H44.6672C45.1606 60.8172 45.5606 60.4172 45.5606 59.9239C45.5606 59.4305 45.1606 59.0305 44.6672 59.0305H32.3799L38.0342 52.8562C38.2462 52.6249 38.3212 52.299 38.2317 51.9984L37.6903 50.1771C37.6508 50.0438 37.6655 49.9029 37.7318 49.7805C37.7982 49.6581 37.9083 49.5688 38.0416 49.529L39.8629 48.9877C40.1896 48.8905 40.4326 48.616 40.4893 48.2799L40.8838 45.9405L44.219 47.7475C44.353 47.8201 44.4991 47.8554 44.6442 47.8554C44.8765 47.8554 45.1059 47.7649 45.2778 47.5921C51.1305 41.7083 54.4405 35.5857 55.3968 28.874C55.4496 28.5042 55.2666 28.1404 54.9379 27.9624L52.0806 26.4145L56.3918 18.4571C56.5046 18.2487 56.5303 18.0042 56.4626 17.7771C56.3951 17.5499 56.2402 17.359 56.0318 17.2462L54.6315 16.4875L56.6006 12.853C56.8507 12.9117 57.1062 12.9426 57.3631 12.9426C57.6865 12.9426 58.0116 12.8957 58.3303 12.801C59.1955 12.5439 59.9089 11.965 60.3388 11.1715C61.2263 9.53315 60.6155 7.47826 58.9773 6.59051ZM51.6265 35.5924L38.4079 28.4309C38.8626 27.7784 39.3495 27.1486 39.868 26.542L52.4875 33.3789C52.2344 34.1228 51.9486 34.8607 51.6265 35.5924ZM49.6889 39.2546L36.3474 32.0264C36.3427 32.0239 36.3376 32.0228 36.3329 32.0204C36.6699 31.3041 37.038 30.6096 37.4366 29.9367L50.8513 37.2044C50.4956 37.8927 50.1083 38.5759 49.6889 39.2546ZM47.2854 42.6646L34.8627 35.9343C35.088 35.1589 35.3433 34.4038 35.6285 33.6692L48.7082 40.7556C48.264 41.3955 47.7883 42.0315 47.2854 42.6646ZM38.8202 47.4335L37.5329 47.8161C36.9419 47.9916 36.4548 48.3869 36.1609 48.9289C35.8672 49.471 35.8022 50.095 35.978 50.6859L36.3751 52.0223L33.9472 54.6733V51.2159L37.72 44.2264L39.2235 45.0409L38.8202 47.4335ZM44.4783 45.8559L40.6372 43.7748C40.6367 43.7746 40.6365 43.7744 40.6361 43.7742L38.405 42.5655L33.9546 40.1544C34.0736 39.322 34.2235 38.51 34.4011 37.7163L46.1198 44.0652C45.5983 44.6644 45.0538 45.2616 44.4783 45.8559ZM53.0143 31.6322L41.1129 25.1844C41.694 24.5992 42.3064 24.0375 42.9538 23.5018L53.5336 29.2336C53.3991 30.0416 53.2238 30.8405 53.0143 31.6322ZM50.5096 25.5631L47.7093 24.046L51.5948 16.8741L54.3954 18.3914L50.5096 25.5631ZM58.7678 10.3202C58.5653 10.6943 58.2289 10.967 57.8214 11.088C57.4135 11.2093 56.9832 11.1644 56.6091 10.9618C56.235 10.7593 55.9623 10.4229 55.8411 10.0153C55.7198 9.60775 55.7647 9.17716 55.9675 8.80308C56.2556 8.27132 56.8043 7.96937 57.3704 7.96937C57.6264 7.96937 57.8859 8.03101 58.1262 8.16144C58.8983 8.57974 59.1861 9.54811 58.7678 10.3202Z" fill="#EB4E59"/>
</svg>
