<svg width="61" height="61" viewBox="0 0 61 61" fill="none" xmlns="http://www.w3.org/2000/svg">
<g clip-path="url(#clip0)">
<path d="M51.463 30.6418C51.463 25.1981 49.3864 20.0382 45.616 16.1124C45.2746 15.757 44.7096 15.7457 44.3542 16.087C43.9987 16.4284 43.9873 16.9934 44.3287 17.3488C47.7783 20.9404 49.6782 25.6612 49.6782 30.6417C49.6782 41.2248 41.0681 49.8348 30.4851 49.8348C19.902 49.8348 11.2917 41.2249 11.2917 30.6418C11.2917 20.0588 19.9018 11.4486 30.4848 11.4486C34.4833 11.4486 38.3153 12.6661 41.5667 14.9696C41.9687 15.2546 42.5259 15.1595 42.8108 14.7573C43.0958 14.3551 43.0007 13.7981 42.5985 13.5133C39.0438 10.9949 34.855 9.6637 30.4848 9.6637C18.9176 9.6637 9.50684 19.0744 9.50684 30.6417C9.50684 42.209 18.9176 51.6197 30.4848 51.6197C42.0521 51.6197 51.463 42.2091 51.463 30.6418Z" fill="#EB4E59"/>
<path d="M21.1113 41.615C20.5213 41.1104 19.968 40.5555 19.4584 39.9526C19.1401 39.5763 18.5772 39.5289 18.2007 39.8472C17.8243 40.1654 17.7771 40.7285 18.0953 41.105C21.1866 44.7621 25.7026 46.8595 30.4855 46.8595C39.4281 46.8595 46.7034 39.5841 46.7034 30.6416C46.7034 21.6991 39.428 14.4237 30.4855 14.4237C21.543 14.4237 14.2676 21.6991 14.2676 30.6416C14.2676 33.0957 14.8023 35.4542 15.8571 37.6515C16.0703 38.0958 16.6037 38.2833 17.0479 38.0699C17.4922 37.8567 17.6795 37.3236 17.4662 36.8791C16.5282 34.9248 16.0525 32.8262 16.0525 30.6416C16.0525 22.6832 22.5272 16.2086 30.4855 16.2086C38.4438 16.2086 44.9185 22.6833 44.9185 30.6416C44.9185 35.0269 42.952 38.9612 39.8552 41.6103C38.3808 40.041 36.4879 38.9067 34.4088 38.3467V36.7191C35.0027 36.3621 35.5535 35.9227 36.0451 35.4024C36.3836 35.0443 36.3677 34.4794 36.0094 34.1407C35.6512 33.8023 35.0864 33.8183 34.7477 34.1764C33.6271 35.3622 32.1133 36.0154 30.4854 36.0154C27.2512 36.0154 24.6199 33.3842 24.6199 30.1499V27.617H36.3507V30.1499C36.3507 30.4975 36.3181 30.8529 36.2539 31.2062C36.1658 31.6911 36.4874 32.1558 36.9723 32.244C37.457 32.332 37.9219 32.0105 38.01 31.5256C38.0935 31.0672 38.1357 30.6044 38.1357 30.1499V26.7246C38.1357 26.7236 38.1356 26.7228 38.1356 26.7218C38.1356 26.7208 38.1357 26.7197 38.1357 26.7186L38.0918 20.0822C38.0886 19.5966 37.815 19.1639 37.3777 18.9527C36.9405 18.7416 36.4315 18.7965 36.0493 19.0958L35.1822 19.775H28.5498C25.3987 19.775 22.8352 22.3385 22.8352 25.4895V26.7244V30.1498C22.8352 32.9349 24.3317 35.3762 26.5621 36.7143V38.3466C24.4807 38.9073 22.5861 40.0433 21.1113 41.615ZM28.5497 21.56H35.49C35.6894 21.56 35.8833 21.4931 36.0403 21.3702L36.3139 21.1559L36.3448 25.8322H24.62V25.4898C24.62 23.3228 26.3829 21.56 28.5497 21.56ZM38.4215 42.6906C36.143 44.1964 33.415 45.0746 30.4854 45.0746C27.6278 45.0746 24.8779 44.232 22.546 42.6939C23.7003 41.5118 25.1419 40.637 26.7218 40.1562C27.2007 41.7826 28.7062 42.9736 30.4854 42.9736C32.2645 42.9736 33.7702 41.7826 34.2489 40.1562C35.8272 40.6366 37.2676 41.5101 38.4215 42.6906ZM30.4854 37.8003C31.2215 37.8003 31.9387 37.6957 32.6238 37.4977V39.0504C32.6238 40.2295 31.6645 41.1889 30.4854 41.1889C29.3062 41.1889 28.3469 40.2295 28.3469 39.0504V37.4939C29.026 37.6919 29.7431 37.8003 30.4854 37.8003Z" fill="#EB4E59"/>
<path d="M40.3593 10.0964C40.8456 10.1758 41.3045 9.84581 41.3838 9.35936C41.7223 7.28625 42.7916 5.38675 44.3951 4.01083C44.4708 3.94586 44.5485 3.88374 44.6261 3.82151C44.3332 4.53119 44.1714 5.3081 44.1714 6.12226C44.1714 7.65109 44.7423 9.04831 45.6806 10.1147C45.169 10.4403 44.6919 10.82 44.2552 11.2534C43.9053 11.6005 43.9032 12.1656 44.2504 12.5154C44.4248 12.6912 44.6544 12.7792 44.8838 12.7792C45.1111 12.7792 45.3384 12.693 45.5124 12.5202C45.9977 12.0386 46.5455 11.6405 47.1437 11.3295C48.0468 11.8657 49.0999 12.175 50.2241 12.175C51.349 12.175 52.4025 11.8655 53.3059 11.3287C55.3665 12.4004 56.7362 14.4835 56.8969 16.8049C55.5843 18.2672 53.7877 19.2997 51.7183 19.6471C51.2322 19.7287 50.9044 20.1889 50.9859 20.675C51.0591 21.1111 51.437 21.4197 51.865 21.4197C51.9141 21.4197 51.9638 21.4157 52.0138 21.4074C54.4904 20.9916 56.7573 19.7061 58.3967 17.7877C60.0553 15.8469 60.9685 13.3703 60.9685 10.8141C60.9685 4.88948 56.1486 0.069519 50.224 0.069519C47.6593 0.069519 45.1763 0.988151 43.2325 2.65632C41.3103 4.30582 40.0281 6.58431 39.6221 9.07199C39.5428 9.55832 39.8727 10.017 40.3593 10.0964ZM45.9562 6.12226C45.9562 3.76892 47.8708 1.85431 50.2241 1.85431C52.5775 1.85431 54.4921 3.76892 54.4921 6.12226C54.4921 8.47559 52.5775 10.3902 50.2241 10.3902C47.8708 10.3902 45.9562 8.47559 45.9562 6.12226ZM59.1837 10.8141C59.1837 12.2051 58.8679 13.5277 58.3002 14.7094C57.7006 12.8246 56.4528 11.1881 54.7679 10.1146C55.7062 9.04807 56.277 7.65097 56.277 6.12226C56.277 5.31024 56.1159 4.53535 55.8244 3.82746C57.8707 5.47088 59.1837 7.99141 59.1837 10.8141Z" fill="#EB4E59"/>
<path d="M8.98909 21.3387C9.03906 21.347 9.08856 21.351 9.13759 21.351C9.56561 21.351 9.94365 21.0421 10.0167 20.6059C10.0981 20.1198 9.77004 19.6597 9.28395 19.5783C7.21584 19.2319 5.41999 18.2014 4.10725 16.7414C4.28848 14.4456 5.65179 12.3907 7.69348 11.3288C8.59688 11.8656 9.65045 12.1751 10.7753 12.1751C11.8996 12.1751 12.9526 11.8659 13.8557 11.3296C14.4492 11.6381 14.9933 12.0325 15.4758 12.5092C15.6496 12.681 15.8763 12.7667 16.1029 12.7667C16.3331 12.7667 16.5633 12.6782 16.7378 12.5015C17.0842 12.1508 17.0807 11.5857 16.7301 11.2394C16.2972 10.8119 15.8244 10.4374 15.3185 10.1152C16.257 9.04864 16.828 7.6513 16.828 6.12223C16.828 5.26714 16.6497 4.4531 16.3283 3.7151C16.4275 3.79352 16.526 3.87313 16.6222 3.95607C18.2292 5.34199 19.2953 7.25291 19.624 9.33673C19.7009 9.82365 20.1587 10.1564 20.6446 10.0792C21.1316 10.0025 21.4639 9.54556 21.3872 9.05864C20.9928 6.55798 19.7146 4.26593 17.788 2.60442C15.8406 0.924938 13.3502 0 10.7754 0C4.85084 0 0.0307617 4.81996 0.0307617 10.7445C0.0307617 13.3014 0.944515 15.7786 2.60376 17.7195C4.24397 19.6384 6.51164 20.9236 8.98909 21.3387ZM6.50747 6.12223C6.50747 3.76889 8.42208 1.85428 10.7754 1.85428C13.1288 1.85428 15.0434 3.76889 15.0434 6.12223C15.0434 8.47557 13.1288 10.3902 10.7754 10.3902C8.42208 10.3902 6.50747 8.47557 6.50747 6.12223ZM5.22056 3.72141C4.90094 4.45798 4.72257 5.26952 4.72257 6.12235C4.72257 7.65142 5.29374 9.049 6.23236 10.1155C4.55966 11.181 3.31796 12.8011 2.71324 14.6684C2.13683 13.4795 1.81567 12.147 1.81567 10.7447C1.81567 7.90107 3.14828 5.36376 5.22056 3.72141Z" fill="#EB4E59"/>
<path d="M52.0564 39.8045C51.571 39.7182 51.1077 40.0417 51.0215 40.527C50.9413 40.9784 51.2158 41.4105 51.6451 41.5381C51.6525 41.5409 51.6594 41.5445 51.6669 41.5471C53.3566 42.1543 54.4919 43.7684 54.4919 45.5636C54.4919 47.917 52.5773 49.8316 50.224 49.8316C48.8257 49.8316 47.5138 49.1438 46.7148 47.9917C46.4341 47.5868 45.8781 47.486 45.4729 47.7669C45.0679 48.0477 44.9672 48.6038 45.2481 49.0089C45.3815 49.2012 45.5257 49.3836 45.6783 49.5571C43.9963 50.6293 42.7501 52.2627 42.15 54.1442C41.8125 53.4421 41.5627 52.6864 41.4158 51.8896C41.3265 51.4049 40.8618 51.0845 40.3764 51.1736C39.8917 51.263 39.5712 51.7283 39.6604 52.213C40.5988 57.3045 45.0413 60.9999 50.224 60.9999C56.1486 60.9999 60.9685 56.1799 60.9685 50.2553C60.9686 45.1174 57.2204 40.7223 52.0564 39.8045ZM50.2241 59.2151C47.6 59.2151 45.2049 58.0778 43.552 56.2352C43.7164 53.9184 45.0849 51.8403 47.142 50.7703C48.0629 51.3158 49.1242 51.6165 50.224 51.6165C51.3488 51.6165 52.4024 51.307 53.3058 50.7702C55.3608 51.839 56.7286 53.9139 56.8955 56.2279C55.254 58.0598 52.8717 59.2151 50.2241 59.2151ZM58.2969 54.1402C57.6959 52.26 56.4494 50.6278 54.7675 49.5565C55.7059 48.4899 56.2769 47.0926 56.2769 45.5636C56.2769 44.8249 56.1406 44.1081 55.8896 43.4413C57.9182 45.0749 59.1838 47.5402 59.1838 50.2554C59.1837 51.6465 58.8651 52.9644 58.2969 54.1402Z" fill="#EB4E59"/>
<path d="M20.6218 51.1864C20.1368 51.0963 19.6715 51.4164 19.5814 51.9009C19.4344 52.6933 19.1852 53.445 18.8493 54.1436C18.2487 52.2624 17.002 50.6295 15.3197 49.5575C15.4677 49.3892 15.6081 49.2131 15.7381 49.0272C16.0204 48.6232 15.9219 48.0668 15.5179 47.7845C15.1139 47.502 14.5575 47.6005 14.2751 48.0046C13.4755 49.1486 12.1671 49.8315 10.7753 49.8315C8.42196 49.8315 6.50735 47.9169 6.50735 45.5636C6.50735 43.7744 7.63744 42.1621 9.31929 41.5516C9.32655 41.549 9.33333 41.5454 9.34048 41.5426C9.76409 41.4104 10.0331 40.981 9.95222 40.5331C9.86464 40.048 9.39985 39.7261 8.91543 39.8134C3.7674 40.743 0.0307617 45.1346 0.0307617 50.2554C0.0307617 56.1799 4.85072 60.9999 10.7753 60.9999C15.9512 60.9999 20.3927 57.3103 21.3364 52.2266C21.4264 51.7422 21.1065 51.2763 20.6218 51.1864ZM5.10751 43.449C4.8581 44.114 4.72268 44.8282 4.72268 45.5637C4.72268 47.0923 5.2935 48.4894 6.23153 49.5558C4.54967 50.6273 3.30368 52.2602 2.703 54.1409C2.13469 52.9649 1.81579 51.6468 1.81579 50.2555C1.81567 47.5462 3.08069 45.0829 5.10751 43.449ZM10.7754 59.2151C8.12769 59.2151 5.74556 58.0598 4.10392 56.2279C4.27075 53.9139 5.63846 51.8391 7.6936 50.7703C8.597 51.307 9.65057 51.6165 10.7754 51.6165C11.8743 51.6165 12.936 51.3158 13.8572 50.7703C15.9143 51.84 17.2827 53.9179 17.4475 56.2346C15.7941 58.0774 13.3986 59.2151 10.7754 59.2151Z" fill="#EB4E59"/>
</g>
<defs>
<clipPath id="clip0">
<rect width="61" height="61" fill="white"/>
</clipPath>
</defs>
</svg>
