<svg width="53" height="53" fill="none" xmlns="http://www.w3.org/2000/svg"><path d="M51.203 1.796a6.147 6.147 0 00-8.684.001l-7.956 7.956-.001.002L6.347 37.97c-.17.169-.274.392-.295.63l-.724 7.959A1.023 1.023 0 006.44 47.67l7.958-.723c.238-.022.462-.126.63-.296l2.17-2.169.002-.001v-.001l34.001-34A6.103 6.103 0 0053 6.137c0-1.64-.638-3.183-1.797-4.342zm-37.36 43.146l-6.366.58.579-6.367 1.185-1.186 5.788 5.788-1.185 1.185zm2.633-2.632l-5.788-5.787 24.598-24.599 5.788 5.788L16.476 42.31zM49.754 9.032l-7.233 7.233-5.788-5.787 7.233-7.233a4.099 4.099 0 015.79-.002 4.065 4.065 0 011.198 2.894 4.07 4.07 0 01-1.2 2.895zM4.9 48.099c-.4-.4-1.047-.4-1.447 0L.3 51.252A1.023 1.023 0 101.747 52.7L4.9 49.545c.4-.4.4-1.047 0-1.447z" fill="#D70000"/><path d="M48.309 4.69c-.4-.4-1.048-.4-1.447 0l-6.511 6.51a1.023 1.023 0 101.447 1.447l6.511-6.511c.4-.4.4-1.048 0-1.447z" fill="#D70000"/></svg>