<svg width="50" height="50" fill="none" xmlns="http://www.w3.org/2000/svg"><path d="M49.457 3.229C49.192 3.097 42.877 0 36.427 0c-3.425 0-6.196.823-8.876 1.618-2.616.777-5.088 1.51-8.117 1.51C13.46 3.129 7.354.146 7.272.105a1.016 1.016 0 00-.435-.102H.978a.977.977 0 00-.976.976v14.746a.977.977 0 001.953 0V1.955H5.86v37.303H1.955V24.513a.977.977 0 00-1.953 0v24.51c0 .54.437.977.976.977h5.86a.976.976 0 00.976-.977V28.851c2.26.941 6.903 2.597 11.62 2.597 3.322 0 6.05-.86 8.689-1.693 2.66-.839 5.172-1.631 8.304-1.631 5.983 0 12.101 2.995 12.162 3.025a.977.977 0 001.41-.875V4.104c0-.372-.21-.71-.542-.875zM7.814 11.273c2.26.942 6.903 2.598 11.62 2.598 3.322 0 6.05-.861 8.689-1.693 2.66-.84 5.172-1.632 8.304-1.632 4.95 0 9.99 2.05 11.62 2.775v6.659c-2.26-.942-6.903-2.598-11.62-2.598-3.433 0-6.208.875-8.891 1.722-2.613.824-5.081 1.602-8.102 1.602-4.95 0-9.99-2.049-11.62-2.774v-6.659zM28.107 3.49c2.664-.79 5.18-1.537 8.32-1.537 4.95 0 9.99 2.05 11.62 2.774v6.464c-2.26-.942-6.903-2.598-11.62-2.598-3.433 0-6.208.876-8.891 1.722-2.613.824-5.081 1.602-8.102 1.602-4.95 0-9.99-2.049-11.62-2.774V2.484c2.26.942 6.903 2.598 11.62 2.598 3.313 0 6.038-.81 8.673-1.592zM1.955 48.047v-6.836H5.86v6.836H1.955zm34.472-21.876c-3.433 0-6.208.875-8.891 1.721-2.613.825-5.081 1.603-8.102 1.603-4.95 0-9.991-2.05-11.62-2.775v-6.658c2.26.941 6.903 2.597 11.62 2.597 3.322 0 6.05-.86 8.689-1.693 2.66-.839 5.172-1.63 8.304-1.63 4.95 0 9.99 2.048 11.62 2.774v6.658c-2.26-.942-6.903-2.597-11.62-2.597z" fill="#D70000"/><path d="M.977 21.095a.977.977 0 100-1.953.977.977 0 000 1.953z" fill="#D70000"/></svg>