<svg width="56" height="56" fill="none" xmlns="http://www.w3.org/2000/svg"><path d="M56 33.25a5.184 5.184 0 00-1.519-3.673 5.793 5.793 0 001.493-4.454c-.273-2.966-2.944-5.29-6.085-5.29H35.476c.714-2.167 1.857-6.141 1.857-9.333 0-5.061-4.3-9.333-7-9.333-2.422 0-4.155 1.365-4.228 1.42a1.167 1.167 0 00-.438.913v7.912L18.944 25.97l-.277.142v-.445c0-.644-.523-1.167-1.167-1.167H5.833A5.839 5.839 0 000 30.333V49a5.838 5.838 0 005.833 5.833h7a5.847 5.847 0 005.49-3.857c1.942.999 4.555 1.524 6.177 1.524h21.418c2.54 0 4.764-1.713 5.287-4.074a5.267 5.267 0 00-.42-3.507 5.228 5.228 0 002.336-7A5.229 5.229 0 0056 33.25zm-4.921 2.88a1.166 1.166 0 00-.667 2.008 2.88 2.88 0 01.921 2.112 2.908 2.908 0 01-2.585 2.88 1.166 1.166 0 00-.667 2.008c.767.724 1.075 1.739.844 2.784-.286 1.302-1.551 2.245-3.007 2.245H24.5c-1.895 0-5.073-.89-6.174-1.993a1.167 1.167 0 00-1.993.826c0 1.93-1.57 3.5-3.5 3.5h-7c-1.93 0-3.5-1.57-3.5-3.5V30.333c0-1.93 1.57-3.5 3.5-3.5h10.5V28c0 .404.21.78.556.994.34.205.77.226 1.134.049l2.333-1.167c.236-.116.425-.312.537-.553l7-15.166c.07-.154.107-.322.107-.49V4.132c.485-.268 1.328-.632 2.333-.632 1.279 0 4.667 3.178 4.667 7 0 4.107-2.235 10.026-2.256 10.085-.136.357-.089.76.128 1.078.22.315.579.504.961.504H49.89c1.946 0 3.598 1.393 3.761 3.17a3.486 3.486 0 01-1.661 3.303c-.357.219-.57.615-.553 1.038.016.422.259.8.632.994a2.888 2.888 0 011.599 2.578 2.908 2.908 0 01-2.588 2.88z" fill="#D70000"/><path d="M17.5 26.833c-.644 0-1.167.523-1.167 1.167v21a1.167 1.167 0 002.334 0V28c0-.644-.523-1.167-1.167-1.167z" fill="#D70000"/></svg>