<svg width="48" height="48" fill="none" xmlns="http://www.w3.org/2000/svg"><circle cx="24" cy="24" r="23.5" stroke="#EB4E59"/><g clip-path="url(#clip0)" fill="#EB4E59"><path d="M20.923 18.553c.774.784.774 1.763 0 2.543-.589.594-1.178 1.188-1.778 1.772-.164.16-.2.295-.09.49.21.384.38.794.61 1.163 1.084 1.723 2.477 3.167 4.045 4.445.78.634 1.613 1.199 2.552 1.593.19.08.315.065.47-.09.574-.594 1.163-1.173 1.753-1.757.819-.814 1.777-.814 2.602.005.469.464.928.928 1.398 1.393.48.48.964.954 1.438 1.438.764.784.764 1.763-.005 2.542-.59.6-1.194 1.174-1.773 1.783-.534.565-1.188.85-1.953.91-1.243.094-2.417-.21-3.56-.64-2.368-.88-4.47-2.218-6.398-3.84-2.607-2.193-4.67-4.81-6.158-7.871-.669-1.379-1.183-2.807-1.268-4.36-.06-1.07.21-1.998 1.044-2.742.569-.51 1.088-1.084 1.633-1.623.809-.8 1.788-.804 2.587-.01a768.03 768.03 0 012.851 2.856zm3.981.954l.314-1.843a8.236 8.236 0 014.445 2.303 8.192 8.192 0 012.342 4.694l-1.853.26a6.355 6.355 0 00-1.812-3.636 6.355 6.355 0 00-3.436-1.778zm8.01-2.881a13.588 13.588 0 013.886 7.79l-1.853.26a11.783 11.783 0 00-3.356-6.732 11.773 11.773 0 00-6.368-3.301l.315-1.843a13.688 13.688 0 017.376 3.826z"/></g><defs><clipPath id="clip0"><path fill="#fff" transform="matrix(0 -1 -1 0 36.8 36.8)" d="M0 0h24v24H0z"/></clipPath></defs></svg>