<svg width="130" height="130" fill="none" xmlns="http://www.w3.org/2000/svg"><path d="M65 0C29.157 0 0 29.16 0 65s29.157 65 65 65 65-29.16 65-65S100.843 0 65 0zm0 124.583C32.145 124.583 5.417 97.855 5.417 65S32.145 5.417 65 5.417 124.583 32.145 124.583 65 97.855 124.583 65 124.583z" fill="#fff"/><path d="M90.84 62.723L52.924 38.348a2.702 2.702 0 00-2.761-.1 2.705 2.705 0 00-1.413 2.377v48.75a2.705 2.705 0 002.708 2.708c.508 0 1.021-.143 1.466-.43L90.84 67.276A2.713 2.713 0 0092.083 65c0-.92-.47-1.78-1.243-2.277zm-36.673 21.69V45.587L84.366 65l-30.2 19.413z" fill="#fff"/></svg>