<svg width="47" height="47" fill="none" xmlns="http://www.w3.org/2000/svg"><path d="M23.526 28.747c3.024 0 5.475-2.376 5.475-5.306s-2.451-5.306-5.475-5.306c-3.024 0-5.475 2.376-5.475 5.306s2.451 5.306 5.475 5.306z" fill="#EB4E59"/><path d="M32 23.737c0 4.535-3.794 8.21-8.474 8.21s-8.474-3.675-8.474-8.21c0-.813.122-1.598.35-2.34h-2.505v11.518c0 .596.487 1.083 1.084 1.083h18.986c.596 0 1.084-.487 1.084-1.083V21.398h-2.4c.227.741.35 1.526.35 2.339zm-2.27-5.447h3.081a1.23 1.23 0 001.227-1.227v-2.938a1.23 1.23 0 00-1.227-1.228H29.73a1.23 1.23 0 00-1.228 1.227v2.938a1.23 1.23 0 001.228 1.228z" fill="#EB4E59"/><path d="M23.5 5C13.283 5 5 13.283 5 23.5S13.283 42 23.5 42 42 33.717 42 23.5 33.717 5 23.5 5zm10.133 32.133H13.367c-1.925 0-3.5-1.425-3.5-3.5V13.368c0-2.075 1.575-3.5 3.5-3.5h20.266c1.925 0 3.5 1.425 3.5 3.5v20.267c0 2.074-1.575 3.499-3.5 3.499z" fill="#EB4E59"/><circle cx="23.5" cy="23.5" r="21" stroke="#EB4E59" stroke-width="5"/></svg>