<svg width="47" height="47" fill="none" xmlns="http://www.w3.org/2000/svg"><path d="M23.5 0C10.522 0 0 10.521 0 23.5S10.522 47 23.5 47 47 36.479 47 23.5 36.478 0 23.5 0zm11.92 26.042c1.096 1.07 2.255 2.076 3.238 3.257.435.522.846 1.062 1.159 1.67.446.865.043 1.815-.732 1.866H34.27c-1.243.102-2.233-.4-3.067-1.25-.666-.677-1.284-1.4-1.925-2.101-.262-.288-.538-.558-.867-.771-.656-.427-1.227-.297-1.603.389-.383.698-.47 1.47-.507 2.247-.052 1.136-.394 1.432-1.534 1.486-2.433.114-4.743-.256-6.89-1.483-1.893-1.082-3.358-2.61-4.635-4.34-2.487-3.37-4.392-7.071-6.103-10.878-.385-.857-.103-1.316.843-1.333 1.57-.03 3.142-.027 4.713-.002.64.01 1.063.376 1.309.98.849 2.089 1.89 4.076 3.194 5.92.348.49.703.98 1.208 1.327.558.383.983.256 1.246-.366.168-.396.24-.82.277-1.243.126-1.453.14-2.905-.076-4.352-.135-.905-.644-1.49-1.546-1.661-.46-.087-.393-.257-.17-.52.389-.454.752-.735 1.479-.735h5.44c.857.168 1.05.553 1.165 1.416l.005 6.045c-.01.334.168 1.325.768 1.543.48.159.798-.227 1.086-.531 1.304-1.384 2.234-3.018 3.066-4.71a31.82 31.82 0 00.992-2.29c.229-.571.585-.853 1.23-.843l5.238.006c.154 0 .311.002.464.028.883.151 1.124.53.851 1.392-.43 1.353-1.265 2.48-2.081 3.61-.875 1.21-1.808 2.377-2.675 3.592-.796 1.11-.733 1.67.255 2.635z" fill="#EB4E59"/></svg>