<svg width="47" height="47" fill="none" xmlns="http://www.w3.org/2000/svg"><path d="M19.218 28.65l10.55-5.47-10.55-5.503V28.65z" fill="#EB4E59"/><path d="M23.5 0C10.522 0 0 10.521 0 23.5S10.522 47 23.5 47 47 36.479 47 23.5 36.478 0 23.5 0zm16.012 31.344c-.407 1.765-1.85 3.066-3.588 3.26-4.114.46-8.278.463-12.425.46-4.147.003-8.312 0-12.427-.46-1.737-.194-3.18-1.495-3.586-3.26-.578-2.514-.578-5.257-.578-7.844 0-2.587.007-5.331.585-7.844.406-1.765 1.848-3.067 3.585-3.261 4.116-.46 8.28-.462 12.428-.46 4.146-.002 8.31 0 12.425.46 1.738.194 3.181 1.496 3.587 3.26.578 2.514.574 5.258.574 7.845 0 2.587-.002 5.33-.58 7.844z" fill="#EB4E59"/></svg>