<svg width="53" height="53" viewBox="0 0 53 53" fill="none" xmlns="http://www.w3.org/2000/svg">
<path d="M51.2027 1.79565C48.8092 -0.597739 44.9139 -0.597015 42.5194 1.79741L34.5635 9.7532C34.5633 9.75351 34.563 9.75372 34.5628 9.75393C34.5625 9.75424 34.5622 9.75445 34.562 9.75465L6.3472 37.9698C6.17784 38.139 6.0734 38.3622 6.05166 38.6005L5.32829 46.5587C5.30086 46.8612 5.40893 47.1602 5.62383 47.3748C5.81637 47.5677 6.07723 47.6746 6.3472 47.6746C6.37794 47.6746 6.40889 47.6731 6.43984 47.6704L14.398 46.947C14.6363 46.9253 14.8596 46.8208 15.0287 46.6515L17.1982 44.482C17.1985 44.4818 17.1989 44.4815 17.1995 44.4809C17.2 44.4804 17.2002 44.4799 17.2005 44.4797L51.201 10.4793C52.3604 9.31978 52.9992 7.77813 52.9999 6.13792C53.0004 4.4973 52.3622 2.95523 51.2027 1.79565ZM13.8437 44.9424L7.47728 45.5212L8.05603 39.1548L9.24129 37.9695L15.0289 43.7572L13.8437 44.9424ZM16.4758 42.3104L10.6881 36.5228L35.2862 11.9245L41.0742 17.7122L16.4758 42.3104ZM49.7541 9.03222L42.5208 16.2654L36.7332 10.4777L43.9661 3.24455C45.5633 1.64814 48.1602 1.6471 49.7559 3.24279C50.5285 4.01554 50.9538 5.04345 50.9536 6.1373C50.9531 7.23105 50.5273 8.25916 49.7541 9.03222Z" fill="#D70000"/>
<path d="M4.90026 48.0985C4.50058 47.6988 3.85268 47.6988 3.45342 48.0985L0.299816 51.2523C-0.0998574 51.6516 -0.0998574 52.2996 0.299816 52.6991C0.499705 52.8989 0.761393 52.9989 1.02329 52.9989C1.28508 52.9989 1.54708 52.899 1.74665 52.6991L4.90026 49.5452C5.29993 49.1458 5.29993 48.4978 4.90026 48.0985Z" fill="#D70000"/>
<path d="M48.3089 4.68966C47.9098 4.2903 47.2613 4.2903 46.8622 4.68966L40.3508 11.201C39.9512 11.6007 39.9512 12.2484 40.3508 12.648C40.5504 12.8477 40.8124 12.9476 41.0743 12.9476C41.3361 12.9476 41.5981 12.8477 41.7977 12.648L48.309 6.1367C48.7086 5.73703 48.7086 5.08933 48.3089 4.68966Z" fill="#D70000"/>
</svg>
