<svg width="50" height="50" viewBox="0 0 50 50" fill="none" xmlns="http://www.w3.org/2000/svg">
<path d="M49.4574 3.22858C49.1918 3.09675 42.8776 0 36.4271 0C33.0024 0 30.2313 0.822624 27.5514 1.6182C24.9348 2.39493 22.4633 3.12869 19.4336 3.12869C13.4613 3.12869 7.35461 0.144623 7.27151 0.103609C7.1387 0.0377915 6.97874 0.00195305 6.83744 0.00195305H0.978294C0.43896 0.00195305 0.00177002 0.439241 0.00177002 0.978477V15.724C0.00177002 16.2632 0.43896 16.7005 0.978294 16.7005C1.51763 16.7005 1.95482 16.2632 1.95482 15.724V1.955H5.86092V39.2582H1.95482V24.5127C1.95482 23.9735 1.51763 23.5362 0.978294 23.5362C0.43896 23.5362 0.00177002 23.9735 0.00177002 24.5127V49.0235C0.00177002 49.5627 0.43896 50 0.978294 50H6.83744C7.37677 50 7.81396 49.5627 7.81396 49.0235V28.8506C10.0733 29.7922 14.7168 31.4479 19.4336 31.4479C22.7555 31.4479 25.4842 30.5873 28.1229 29.755C30.7825 28.9162 33.2946 28.1239 36.427 28.1239C42.4103 28.1239 48.5284 31.1188 48.5891 31.149C48.8917 31.299 49.2505 31.2823 49.5378 31.1042C49.8251 30.926 49.9997 30.6122 49.9997 30.2742V4.10336C49.9998 3.73237 49.7897 3.39352 49.4574 3.22858ZM7.81396 11.2732C10.0733 12.2148 14.7168 13.8705 19.4336 13.8705C22.7555 13.8705 25.4842 13.0098 28.1229 12.1776C30.7825 11.3387 33.2946 10.5465 36.427 10.5465C41.3763 10.5465 46.4176 12.5956 48.0467 13.321V19.9795C45.7874 19.0378 41.144 17.3821 36.4271 17.3821C32.994 17.3821 30.2191 18.2573 27.5356 19.1036C24.9227 19.9277 22.4548 20.7061 19.4336 20.7061C14.4847 20.7061 9.44359 18.6572 7.81396 17.9316V11.2732ZM28.1071 3.49049C30.7706 2.6998 33.2862 1.95305 36.4271 1.95305C41.3762 1.95305 46.4175 4.00209 48.0468 4.72745V11.1907C45.7874 10.2491 41.144 8.59341 36.4271 8.59341C32.994 8.59341 30.2191 9.46858 27.5356 10.3149C24.9227 11.139 22.4548 11.9174 19.4336 11.9174C14.4847 11.9174 9.44359 9.86846 7.81396 9.1429V2.48447C10.0733 3.42604 14.7168 5.08174 19.4336 5.08174C22.747 5.08174 25.472 4.27278 28.1071 3.49049ZM1.95482 48.047V41.2113H5.86092V48.047H1.95482ZM36.4271 26.1709C32.994 26.1709 30.2191 27.046 27.5356 27.8924C24.9227 28.7165 22.4548 29.4948 19.4336 29.4948C14.4844 29.4948 9.443 27.4457 7.81396 26.7203V20.0618C10.0733 21.0034 14.7168 22.6591 19.4336 22.6591C22.7555 22.6591 25.4842 21.7985 28.1229 20.9662C30.7825 20.1273 33.2946 19.3351 36.427 19.3351C41.3763 19.3351 46.4176 21.3842 48.0467 22.1096V28.768C45.7872 27.8265 41.1437 26.1709 36.4271 26.1709Z" fill="#D70000"/>
<path d="M0.977295 21.095C1.51664 21.095 1.95386 20.6577 1.95386 20.1184C1.95386 19.5791 1.51664 19.1418 0.977295 19.1418C0.437954 19.1418 0.000732422 19.5791 0.000732422 20.1184C0.000732422 20.6577 0.437954 21.095 0.977295 21.095Z" fill="#D70000"/>
</svg>
