<svg width="56" height="56" viewBox="0 0 56 56" fill="none" xmlns="http://www.w3.org/2000/svg">
<path d="M56 33.25C56 31.8477 55.4423 30.541 54.481 29.5773C55.5707 28.385 56.126 26.7866 55.9743 25.123C55.7013 22.1573 53.0296 19.8333 49.889 19.8333H35.476C36.19 17.6656 37.3333 13.692 37.3333 10.5C37.3333 5.43904 33.033 1.16675 30.3333 1.16675C27.9113 1.16675 26.1776 2.53175 26.1053 2.58775C25.8276 2.80945 25.6666 3.14545 25.6666 3.50004V11.4123L18.9443 25.97L18.6666 26.1123V25.6666C18.6666 25.0226 18.1439 24.4999 17.4999 24.4999H5.8333C2.6157 24.5 0 27.1157 0 30.3333V49C0 52.2177 2.6157 54.8333 5.8333 54.8333H12.8333C15.3556 54.8333 17.5116 53.2233 18.3236 50.9763C20.265 51.975 22.8783 52.5 24.5 52.5H45.9177C48.4587 52.5 50.6824 50.7873 51.205 48.426C51.4733 47.208 51.317 45.983 50.785 44.919C52.507 44.0533 53.6667 42.273 53.6667 40.25C53.6667 39.424 53.4777 38.633 53.1207 37.919C54.8427 37.051 56 35.273 56 33.25ZM51.079 36.1293C50.6287 36.183 50.2483 36.4886 50.1037 36.9203C49.9614 37.352 50.0804 37.8256 50.4117 38.1383C51.0044 38.696 51.3334 39.4473 51.3334 40.25C51.3334 41.7223 50.2204 42.959 48.7481 43.1293C48.2978 43.183 47.9174 43.4886 47.7728 43.9203C47.6305 44.352 47.7495 44.8256 48.0808 45.1383C48.8485 45.8616 49.1565 46.8766 48.9255 47.922C48.6385 49.224 47.3738 50.1667 45.9178 50.1667H24.5C22.6053 50.1667 19.4273 49.2777 18.326 48.174C17.9923 47.8427 17.4883 47.7447 17.0543 47.922C16.618 48.1017 16.3333 48.5287 16.3333 49C16.3333 50.9297 14.763 52.5 12.8333 52.5H5.8333C3.90359 52.5 2.3333 50.9297 2.3333 49V30.3333C2.3333 28.4036 3.90359 26.8333 5.8333 26.8333H16.3333V28C16.3333 28.4037 16.5433 28.7793 16.8886 28.994C17.2293 29.1993 17.6586 29.2203 18.0226 29.043L20.3559 27.8763C20.5916 27.7596 20.7806 27.5636 20.8926 27.3233L27.8926 12.1566C27.9626 12.0026 27.9999 11.8346 27.9999 11.6666V4.13234C28.4853 3.86404 29.3277 3.50004 30.3333 3.50004C31.612 3.50004 35 6.67804 35 10.5C35 14.6067 32.7647 20.5263 32.7437 20.5847C32.6084 20.9417 32.655 21.3454 32.872 21.6627C33.0913 21.9777 33.4507 22.1667 33.8333 22.1667H49.889C51.835 22.1667 53.487 23.5597 53.6503 25.3377C53.774 26.6677 53.1346 27.9325 51.989 28.6395C51.632 28.8587 51.4197 29.2554 51.436 29.6777C51.4523 30.1 51.695 30.478 52.0683 30.6717C53.0553 31.1735 53.6666 32.1627 53.6666 33.25C53.6667 34.7223 52.5537 35.959 51.079 36.1293Z" fill="#D70000"/>
<path d="M17.5 26.8333C16.856 26.8333 16.3333 27.356 16.3333 28V49C16.3333 49.644 16.856 50.1667 17.5 50.1667C18.144 50.1667 18.6667 49.644 18.6667 49V28C18.6667 27.356 18.144 26.8333 17.5 26.8333Z" fill="#D70000"/>
</svg>
