<svg width="63" height="63" fill="none" xmlns="http://www.w3.org/2000/svg"><g clip-path="url(#clip0)" fill="#EB4E59"><path d="M62.743 26.868L52.2 13.171a1.235 1.235 0 00-1.642-.289l-6.808 4.33h-8.88c-.114 0-.228.025-.339.057l-6.884 1.982-7.144-1.954-6.94-4.415a1.235 1.235 0 00-1.625.267L.274 27.595c-.42.52-.35 1.277.156 1.712l6.113 5.261 5.484 7.39a4.37 4.37 0 00.096 6.074 4.353 4.353 0 002.648 1.254 4.337 4.337 0 001.228 3.754 4.337 4.337 0 003.087 1.279l.046-.002-.002.09a4.34 4.34 0 001.279 3.087 4.339 4.339 0 003.769 1.225c.095.97.513 1.916 1.255 2.658a4.35 4.35 0 003.087 1.276 4.352 4.352 0 003.087-1.276l.668-.668.28.226a4.35 4.35 0 003.036 1.226 4.35 4.35 0 003.087-1.276 4.353 4.353 0 001.276-3.156 4.357 4.357 0 004.431-4.43 4.34 4.34 0 003.155-1.277 4.353 4.353 0 001.276-3.156 4.354 4.354 0 003.156-1.276 4.373 4.373 0 00.574-5.465l4.004-8.386 6.02-5.18a1.234 1.234 0 00.173-1.69zM13.166 15.56l4.991 3.174L7.3 31.96l-4.351-3.744 10.217-12.657zm.704 28.045l1.507-1.506a1.89 1.89 0 011.172-.547l.032-.002a1.884 1.884 0 011.514.587c.697.738.66 1.944-.084 2.688l-1.461 1.46a1.897 1.897 0 01-2.68 0 1.898 1.898 0 010-2.68zm3.876 7.689a1.88 1.88 0 01-.555-1.34c0-.506.197-.982.555-1.34l2.92-2.92a1.915 1.915 0 012.155-.373 1.888 1.888 0 011.044 1.957 2 2 0 01-.564 1.141l-2.875 2.875a1.883 1.883 0 01-1.34.555c-.506 0-.982-.197-1.34-.555zm4.41 4.453a1.88 1.88 0 01-.555-1.34c0-.506.197-.982.555-1.34l2.92-2.92a1.916 1.916 0 012.291-.301c.67.39 1.02 1.154.905 1.915a2.001 2.001 0 01-.561 1.112l-2.875 2.874a1.882 1.882 0 01-1.34.555c-.506 0-.982-.197-1.34-.555zm5.024 3.884a1.897 1.897 0 010-2.68l1.506-1.506c.046-.046.094-.089.143-.13l.003-.002a1.887 1.887 0 011.022-.415l.066-.004c.044-.002.088-.005.132-.005a1.882 1.882 0 011.474.738c.568.742.492 1.846-.213 2.551L29.86 59.63a1.897 1.897 0 01-2.68 0zm23.045-13.787a1.896 1.896 0 01-2.68 0 1.12 1.12 0 00-.084-.075l-7.943-8.027a1.235 1.235 0 00-1.757 1.738l8.03 8.113.003.003a1.897 1.897 0 01-1.34 3.235 1.88 1.88 0 01-1.34-.555l-5.372-5.427a1.235 1.235 0 10-1.755 1.738l5.289 5.344a.968.968 0 00.086.096 1.897 1.897 0 010 2.68 1.898 1.898 0 01-2.68 0l-2.932-2.962a1.235 1.235 0 10-1.756 1.737l2.85 2.88a.867.867 0 00.087.096 1.898 1.898 0 010 2.68c-.74.74-1.941.74-2.68 0-.085-.085-.185-.15-.28-.223-.081-.062-.102-.104-.062-.202.041-.1.102-.19.143-.29a4.03 4.03 0 00.117-.341c.19-.61.245-1.268.16-1.901a4.347 4.347 0 00-1.845-3.007 4.337 4.337 0 00-1.838-.712c.319-1.403-.064-2.925-1.058-3.975a4.333 4.333 0 00-3.242-1.366 4.36 4.36 0 00-1.168-3.087 4.335 4.335 0 00-3.111-1.366 4.439 4.439 0 00-1.054.112 4.332 4.332 0 00-1.444-2.648 4.33 4.33 0 00-2.792-1.059 4.376 4.376 0 00-2.983 1.122L9.02 33.76l11.424-13.918 3.641.996-4.755 8.39a4.336 4.336 0 00-.409 3.316 4.336 4.336 0 002.262 2.745 4.337 4.337 0 003.11.3 4.338 4.338 0 002.634-2.056l3.09-5.453 5.517.391 14.692 14.692c.739.74.739 1.941 0 2.68zm.512-5.662L36.954 26.398a1.235 1.235 0 00-.786-.358l-6.755-.48a1.256 1.256 0 00-1.163.624l-3.474 6.131c-.25.44-.655.757-1.143.892a1.883 1.883 0 01-1.44-.178 1.883 1.883 0 01-.892-1.143 1.88 1.88 0 01.178-1.44l4.638-8.185 1.88-.54.036-.013 7.014-2.025h8.475l10.58 13.45-3.365 7.048zm4.984-8.988L45.937 18.75l4.993-3.176 9.142 11.876-4.351 3.744z"/><path d="M38.167 14.893c.316 0 .633-.121.874-.362l8.438-8.439a1.235 1.235 0 10-1.747-1.747l-8.438 8.438a1.235 1.235 0 00.873 2.11zm-14.208-.363a1.232 1.232 0 001.747 0 1.235 1.235 0 000-1.747l-8.438-8.438a1.235 1.235 0 10-1.747 1.747l8.438 8.439zm7.541.363c.682 0 1.235-.554 1.235-1.236V6.674a1.235 1.235 0 00-2.47 0v6.983c0 .682.553 1.236 1.235 1.236zM30.36 2.197c.196.475.685.787 1.2.76.51-.026.958-.37 1.115-.856a1.245 1.245 0 00-.423-1.357c-.418-.318-1-.336-1.437-.047a1.244 1.244 0 00-.455 1.5z"/></g><defs><clipPath id="clip0"><path fill="#fff" d="M0 0h63v63H0z"/></clipPath></defs></svg>