<svg width="64" height="64" fill="none" xmlns="http://www.w3.org/2000/svg"><g clip-path="url(#clip0)" fill="#EB4E59"><path d="M36 64h-8c-1.866 0-4-1.6-4-4.8v-5.6c0-2.667-1.333-5.067-3.466-6.933-4.8-3.734-7.2-9.067-7.2-14.934.266-10.133 8.533-18.133 18.4-18.4 5.066 0 9.866 1.867 13.333 5.334 3.466 3.466 5.6 8.266 5.6 13.333 0 5.6-2.4 10.933-6.934 14.4-2.4 1.867-3.733 4.8-3.733 7.467V60c0 2.133-1.867 4-4 4zm-4-48c-8.533 0-15.733 7.2-16 15.733 0 5.067 2.134 9.867 6.134 12.8 2.933 2.4 4.533 5.6 4.533 9.067v5.6c0 .533 0 2.133 1.333 2.133h8c.8 0 1.334-.533 1.334-1.333v-6.133c0-3.467 1.866-7.2 4.8-9.6C45.866 41.333 48 36.8 48 32c0-4.267-1.6-8.267-4.8-11.467C40.267 17.6 36.267 16 32 16z"/><path d="M38.667 56H25.333c-.8 0-1.333-.533-1.333-1.333 0-.8.533-1.334 1.333-1.334h13.334c.8 0 1.333.534 1.333 1.334S39.467 56 38.667 56zM32 8c-.8 0-1.334-.533-1.334-1.333V1.333C30.666.533 31.2 0 32 0s1.333.533 1.333 1.333v5.334C33.333 7.467 32.8 8 32 8zm17.867 7.467c-.267 0-.8 0-1.067-.267a1.289 1.289 0 010-1.867L52.533 9.6a1.289 1.289 0 011.867 0 1.289 1.289 0 010 1.867L50.667 15.2s-.534.267-.8.267zm12.8 17.866h-5.334C56.533 33.333 56 32.8 56 32c0-.8.533-1.333 1.333-1.333h5.334c.8 0 1.333.533 1.333 1.333 0 .8-.533 1.333-1.333 1.333zm-9.067 21.6c-.267 0-.8 0-1.067-.266L48.8 50.933a1.289 1.289 0 010-1.866 1.289 1.289 0 011.867 0L54.4 52.8a1.289 1.289 0 010 1.867c0 .266-.267.266-.8.266zm-43.2 0c-.267 0-.8 0-1.067-.266a1.289 1.289 0 010-1.867l3.733-3.733a1.289 1.289 0 011.867 0 1.289 1.289 0 010 1.866L11.2 54.667c-.267.266-.534.266-.8.266zm-3.733-21.6H1.333C.533 33.333 0 32.8 0 32c0-.8.533-1.333 1.333-1.333h5.334C7.467 30.667 8 31.2 8 32c0 .8-.533 1.333-1.333 1.333zm7.466-17.866c-.267 0-.8 0-1.067-.267l-3.733-4a1.289 1.289 0 010-1.867 1.289 1.289 0 011.867 0l3.733 3.734a1.289 1.289 0 010 1.866c-.267.267-.533.534-.8.534zm28.533 17.866c-.8 0-1.333-.533-1.333-1.333 0-5.067-4.267-9.333-9.333-9.333-.8 0-1.334-.534-1.334-1.334S31.2 20 32 20c6.666 0 12 5.333 12 12 0 .8-.533 1.333-1.334 1.333z"/></g><defs><clipPath id="clip0"><path fill="#fff" d="M0 0h64v64H0z"/></clipPath></defs></svg>