<svg width="78" height="78" fill="none" xmlns="http://www.w3.org/2000/svg"><path d="M52.439 42.162l-6.64-2.95a1.3 1.3 0 01-.771-1.189V36.2a9.676 9.676 0 003.663-7.58v-2.567a2.368 2.368 0 001.222-2.07v-.248c0-5.344-4.348-9.691-9.691-9.691h-2.443c-5.344 0-9.691 4.347-9.691 9.69v2.26c0 .773.332 1.473.912 1.92.098.076.201.143.31.201v.505a9.676 9.676 0 003.663 7.58v1.823a1.3 1.3 0 01-.772 1.188l-6.64 2.95a6.033 6.033 0 00-3.58 5.509v15.143a1.143 1.143 0 002.286 0V47.67c0-.133.01-.263.023-.393l3.06 3.06a2.5 2.5 0 01.738 1.782v10.694a1.143 1.143 0 102.285 0V52.12c0-1.284-.5-2.49-1.408-3.399l-3.647-3.647a3.73 3.73 0 011.172-.823l6.527-2.901 4.84 4.84v16.624a1.143 1.143 0 102.286 0V46.19l4.84-4.84 6.528 2.9c.449.2.843.482 1.171.823l-3.647 3.647a4.775 4.775 0 00-1.407 3.399v10.694a1.143 1.143 0 102.285 0V52.12c0-.673.262-1.307.738-1.783l3.06-3.06c.013.13.023.261.023.394v15.143a1.143 1.143 0 002.285 0V47.67a6.034 6.034 0 00-3.58-5.508zM39 44.101l-4.248-4.248a3.579 3.579 0 00.506-1.83v-.465a9.637 9.637 0 003.742.753c1.326 0 2.59-.268 3.742-.752v.464c0 .658.183 1.287.506 1.83L39 44.101zm0-8.076c-4.083 0-7.406-3.322-7.406-7.405v-.514c.713-.283 1.41-.733 2.075-1.347a1.143 1.143 0 00-1.55-1.68c-.571.528-1.142.869-1.696 1.014a.183.183 0 01-.03.005.232.232 0 01-.02-.103v-2.26c0-4.084 3.322-7.406 7.406-7.406h2.442c4.084 0 7.406 3.322 7.406 7.406v.249c0 .037-.022.07-.051.075-6.842 1.351-10.274-1.196-11.432-2.353a1.143 1.143 0 10-1.615 1.616c3.548 3.547 8.725 3.611 11.877 3.233v2.064c0 4.084-3.322 7.406-7.406 7.406zm-18.397-.078v-2.443a8.468 8.468 0 00-3.883-7.114c.144-.463.22-.947.22-1.434a4.812 4.812 0 00-4.807-4.806 4.812 4.812 0 00-4.587 6.24 8.468 8.468 0 00-3.882 7.114v2.443a8.465 8.465 0 003.663 6.969v2.512c0 .496-.275.941-.718 1.163l-3.952 1.976A4.78 4.78 0 000 52.866v9.948a1.143 1.143 0 002.285 0V53.36l1.861 1.861c.477.477.739 1.11.739 1.783v5.81a1.143 1.143 0 002.285 0v-5.81c0-1.284-.5-2.49-1.408-3.398l-2.59-2.591-.039-.035a2.55 2.55 0 01.546-.37l3.952-1.975c.202-.101.39-.22.566-.354l2.794 2.794v11.739a1.142 1.142 0 102.285 0v-11.74l2.794-2.793c.175.133.364.253.566.354l1.09.545a1.143 1.143 0 001.022-2.044l-1.09-.545a1.293 1.293 0 01-.718-1.162v-2.513a8.465 8.465 0 003.663-6.969zm-8.47-13.512a2.524 2.524 0 012.482 2.971 8.441 8.441 0 00-4.96 0 2.537 2.537 0 01-.043-.45c0-1.39 1.131-2.52 2.521-2.52zm0 4.885a6.192 6.192 0 016.185 6.185v.414c-4.757 1.456-7.592-2.162-7.713-2.321a1.143 1.143 0 00-1.722-.122c-1.09 1.09-2.159 1.616-2.93 1.87a6.19 6.19 0 016.18-6.026zm0 21.666l-2.64-2.64c.077-.295.12-.602.12-.918v-1.394a8.437 8.437 0 002.52.383c.878 0 1.725-.134 2.521-.383v1.394c0 .316.043.623.12.917l-2.64 2.64zm0-6.854a6.192 6.192 0 01-6.184-6.185v-.237c.91-.21 2.262-.696 3.671-1.829a10.31 10.31 0 002.119 1.542 9.089 9.089 0 004.367 1.127c.688 0 1.424-.08 2.202-.263a6.192 6.192 0 01-6.175 5.845zm63.211 3.992l-6.395-3.197a1.293 1.293 0 01-.718-1.162v-1.62a7.232 7.232 0 002.442-5.42v-1.3h.079c.63 0 1.142-.51 1.142-1.142v-2.442c0-3.997-3.252-7.249-7.248-7.249h-2.443c-3.997 0-7.248 3.252-7.248 7.249v2.442a1.143 1.143 0 001.22 1.14v1.303c0 2.154.947 4.09 2.443 5.42v1.619c0 .495-.275.94-.718 1.162a1.142 1.142 0 101.022 2.044c.202-.101.39-.22.566-.353l2.794 2.793v15.403a1.143 1.143 0 102.285 0V47.41l2.794-2.794c.175.133.364.253.566.354l6.188 3.094-1.877 1.877a4.775 4.775 0 00-1.408 3.398v9.473a1.143 1.143 0 002.285 0V53.34c0-.673.263-1.307.739-1.783l1.778-1.777c.053.206.083.422.083.643v12.39a1.143 1.143 0 102.285 0v-12.39a4.78 4.78 0 00-2.656-4.299zM57.24 30.906V29.84a4.97 4.97 0 014.963-4.964h2.443a4.97 4.97 0 014.963 4.964v1.269c-4.967-.268-7.964-2.2-7.993-2.22a1.14 1.14 0 00-1.442.143c-1.093 1.093-2.164 1.62-2.934 1.873zm6.184 14.416l-2.64-2.64c.077-.295.12-.602.12-.917v-.244a7.212 7.212 0 002.52.453c.887 0 1.736-.16 2.521-.453v.244c0 .315.043.622.12.917l-2.64 2.64zm0-5.633a4.97 4.97 0 01-4.963-4.963v-1.842c.8-.32 1.733-.828 2.681-1.637 1.2.625 3.71 1.704 7.246 2.06v1.419a4.97 4.97 0 01-4.964 4.963z" fill="#EB4E59"/></svg>