<svg width="67" height="67" fill="none" xmlns="http://www.w3.org/2000/svg"><path d="M12.507 11.684c.493 0 .893-.4.893-.894V8.11a.893.893 0 00-1.786 0v2.68c0 .494.4.894.893.894zm0 6.253c.493 0 .893-.4.893-.893v-2.68a.893.893 0 00-1.786 0v2.68c0 .493.4.893.893.893zM8.04 13.47h2.68a.893.893 0 100-1.786H8.04a.893.893 0 000 1.786zm6.254 0h2.68a.893.893 0 100-1.786h-2.68a.893.893 0 000 1.786zM13.4 44.737a.893.893 0 10-1.786 0v2.68a.893.893 0 001.786 0v-2.68zm-.893 5.36c-.493 0-.893.4-.893.893v2.68a.893.893 0 001.786 0v-2.68c0-.493-.4-.893-.893-.893zm-4.467 0h2.68a.893.893 0 000-1.787H8.04a.893.893 0 000 1.787zm6.254 0h2.68a.893.893 0 100-1.787h-2.68a.893.893 0 000 1.787zm26.353-35.733a3.13 3.13 0 003.127-3.127 3.13 3.13 0 00-3.127-3.127 3.13 3.13 0 00-3.127 3.127 3.13 3.13 0 003.127 3.127zm0-4.467a1.34 1.34 0 11-.001 2.681 1.34 1.34 0 01.001-2.681zM22.78 37.59a3.13 3.13 0 003.127-3.126 3.13 3.13 0 00-3.127-3.127 3.13 3.13 0 00-3.126 3.127 3.13 3.13 0 003.127 3.126zm0-4.466a1.34 1.34 0 110 2.68 1.34 1.34 0 010-2.68zm2.234-23.227a.893.893 0 100-1.787.893.893 0 000 1.787zm-16.08 18.76a.893.893 0 100-1.787.893.893 0 000 1.787zm21.44-5.36a.893.893 0 100-1.787.893.893 0 000 1.787zM55.387 50.99a.893.893 0 100-1.786.893.893 0 000 1.786z" fill="#EB4E59"/><path d="M58.977 6.59a3.383 3.383 0 00-4.58 1.362 3.357 3.357 0 00-.268 2.572c.17.572.482 1.075.902 1.476l-1.97 3.636-1.4-.758a.893.893 0 00-1.211.36l-4.311 7.957-2.858-1.548a.894.894 0 00-.98.085c-5.783 4.576-9.215 10.902-10.2 18.804a.893.893 0 00.461.896l3.588 1.944-3.882 7.19a.894.894 0 00-.107.424v4.233l-2.09 3.719c-.016.028-.027.059-.04.089H7.148a.893.893 0 000 1.786h37.52a.893.893 0 100-1.786H32.38l5.654-6.175a.893.893 0 00.198-.858l-.542-1.82a.518.518 0 01.352-.649l1.82-.541a.894.894 0 00.627-.708l.395-2.34 3.335 1.808a.891.891 0 001.059-.156c5.852-5.884 9.163-12.006 10.119-18.718a.893.893 0 00-.46-.912l-2.856-1.547 4.31-7.958a.893.893 0 00-.36-1.21l-1.4-.76 1.97-3.634a3.336 3.336 0 001.73-.052 3.357 3.357 0 002.008-1.63 3.383 3.383 0 00-1.362-4.58zm-7.35 29.002l-13.22-7.161c.456-.653.943-1.282 1.461-1.889l12.62 6.837a27.37 27.37 0 01-.861 2.213zm-1.938 3.663l-13.342-7.229c-.004-.002-.01-.003-.014-.006.337-.716.705-1.41 1.104-2.083l13.414 7.267a30.792 30.792 0 01-1.162 2.05zm-2.404 3.41l-12.422-6.73c.225-.776.48-1.531.766-2.266l13.08 7.087c-.445.64-.92 1.276-1.424 1.909zm-8.465 4.769l-1.287.382a2.293 2.293 0 00-1.372 1.113 2.292 2.292 0 00-.183 1.757l.397 1.336-2.428 2.651v-3.457l3.773-6.99 1.504.815-.404 2.393zm5.658-1.578l-3.84-2.081h-.002l-2.231-1.21-4.45-2.41c.119-.833.269-1.645.446-2.439l11.719 6.35a46.282 46.282 0 01-1.642 1.79zm8.536-14.224l-11.901-6.448a25.527 25.527 0 011.84-1.682l10.58 5.732a26.18 26.18 0 01-.519 2.398zm-2.504-6.069l-2.8-1.517 3.885-7.172 2.8 1.517-3.885 7.172zm8.258-15.243a1.581 1.581 0 01-.947.768 1.582 1.582 0 01-1.212-.126 1.582 1.582 0 01-.768-.947 1.594 1.594 0 012.285-1.854 1.594 1.594 0 01.642 2.16z" fill="#EB4E59"/></svg>