<svg width="61" height="61" fill="none" xmlns="http://www.w3.org/2000/svg"><g clip-path="url(#clip0)" fill="#EB4E59"><path d="M51.463 30.642a20.879 20.879 0 00-5.847-14.53.893.893 0 00-1.287 1.237 19.101 19.101 0 015.35 13.293c0 10.583-8.61 19.193-19.194 19.193-10.583 0-19.193-8.61-19.193-19.193 0-10.583 8.61-19.193 19.193-19.193a19.07 19.07 0 0111.082 3.52.892.892 0 101.032-1.456 20.84 20.84 0 00-12.114-3.85c-11.567 0-20.978 9.411-20.978 20.979 0 11.567 9.41 20.978 20.978 20.978 11.567 0 20.978-9.41 20.978-20.978z"/><path d="M21.111 41.615a14.525 14.525 0 01-1.653-1.662.892.892 0 10-1.363 1.152 16.195 16.195 0 0012.39 5.755c8.943 0 16.218-7.276 16.218-16.218 0-8.943-7.275-16.218-16.218-16.218-8.942 0-16.217 7.275-16.217 16.218 0 2.454.534 4.812 1.59 7.01a.892.892 0 101.608-.773 14.3 14.3 0 01-1.414-6.237c0-7.959 6.475-14.433 14.433-14.433 7.959 0 14.434 6.474 14.434 14.433 0 4.385-1.967 8.32-5.064 10.968a11.642 11.642 0 00-5.446-3.263v-1.628a7.72 7.72 0 001.636-1.317.893.893 0 00-1.297-1.226 5.811 5.811 0 01-4.263 1.84 5.872 5.872 0 01-5.865-5.866v-2.533h11.73v2.533c0 .348-.032.703-.096 1.056a.893.893 0 001.756.32c.084-.459.126-.922.126-1.376v-3.431l-.044-6.637a1.255 1.255 0 00-.714-1.13 1.255 1.255 0 00-1.329.144l-.867.679H28.55a5.721 5.721 0 00-5.715 5.715v4.66a7.653 7.653 0 003.727 6.564v1.633a11.641 11.641 0 00-5.45 3.268zM28.55 21.56h6.94a.89.89 0 00.55-.19l.274-.214.03 4.676H24.62v-.342a3.934 3.934 0 013.93-3.93zm9.872 21.13a14.348 14.348 0 01-7.937 2.385c-2.857 0-5.607-.843-7.939-2.381a9.856 9.856 0 014.176-2.538 3.93 3.93 0 003.763 2.818 3.93 3.93 0 003.764-2.818 9.858 9.858 0 014.172 2.535zm-7.937-4.89a7.69 7.69 0 002.139-.302v1.552a2.14 2.14 0 01-2.139 2.139 2.141 2.141 0 01-2.138-2.139v-1.556a7.625 7.625 0 002.138.306zm9.875-27.704a.892.892 0 001.024-.737 8.966 8.966 0 013.011-5.348c.076-.065.153-.127.231-.19a6.017 6.017 0 00-.455 2.301c0 1.53.571 2.926 1.51 3.993a8.495 8.495 0 00-1.426 1.138.892.892 0 101.257 1.267 6.691 6.691 0 011.632-1.19 6.015 6.015 0 003.08.845c1.125 0 2.179-.31 3.082-.846a6.712 6.712 0 013.59 5.476 8.92 8.92 0 01-5.178 2.842.893.893 0 00.296 1.76 10.741 10.741 0 008.955-10.593C60.968 4.89 56.148.07 50.224.07a10.74 10.74 0 00-10.602 9.002c-.08.486.25.945.737 1.024zm5.596-3.974a4.273 4.273 0 014.268-4.268 4.273 4.273 0 014.268 4.268 4.273 4.273 0 01-4.268 4.268 4.273 4.273 0 01-4.268-4.268zm13.228 4.692a8.975 8.975 0 01-.884 3.895 8.518 8.518 0 00-3.532-4.594 6.026 6.026 0 001.509-3.993c0-.812-.161-1.587-.453-2.295a8.945 8.945 0 013.36 6.987zM8.99 21.339a.893.893 0 00.295-1.76 8.92 8.92 0 01-5.178-2.838 6.713 6.713 0 013.586-5.412 6.014 6.014 0 003.082.846 6.02 6.02 0 003.08-.845 6.688 6.688 0 011.62 1.18.89.89 0 001.263-.008.892.892 0 00-.008-1.263 8.514 8.514 0 00-1.412-1.124 6.026 6.026 0 001.51-3.993c0-.855-.178-1.669-.5-2.407a8.962 8.962 0 013.296 5.622.893.893 0 001.763-.278A10.748 10.748 0 0010.775 0C4.851 0 .031 4.82.031 10.745a10.741 10.741 0 008.958 10.594zM6.506 6.122a4.273 4.273 0 014.268-4.268 4.273 4.273 0 014.268 4.268 4.273 4.273 0 01-4.268 4.268 4.273 4.273 0 01-4.268-4.268zm-1.286-2.4a6.026 6.026 0 001.012 6.394 8.516 8.516 0 00-3.52 4.552 8.973 8.973 0 01-.897-3.923A8.947 8.947 0 015.22 3.72zm46.836 36.082a.892.892 0 00-.41 1.734l.02.01a4.279 4.279 0 012.826 4.016 4.273 4.273 0 01-4.268 4.268 4.273 4.273 0 01-3.51-1.84.892.892 0 10-1.466 1.017c.134.192.278.375.43.548a8.517 8.517 0 00-3.528 4.587 8.94 8.94 0 01-.734-2.254.892.892 0 10-1.756.323A10.737 10.737 0 0050.224 61c5.925 0 10.745-4.82 10.745-10.745 0-5.138-3.749-9.533-8.913-10.45zm-1.832 19.411a8.952 8.952 0 01-6.672-2.98 6.713 6.713 0 013.59-5.465 6.037 6.037 0 006.164 0 6.713 6.713 0 013.59 5.458 8.938 8.938 0 01-6.672 2.987zm8.073-5.075a8.517 8.517 0 00-3.53-4.584 6.027 6.027 0 001.123-6.115c2.028 1.634 3.294 4.1 3.294 6.814a8.906 8.906 0 01-.887 3.885zm-37.675-2.954a.892.892 0 00-1.04.715 8.928 8.928 0 01-.733 2.243 8.518 8.518 0 00-3.53-4.587 6.08 6.08 0 00.42-.53.892.892 0 00-1.464-1.022 4.275 4.275 0 01-3.5 1.826 4.273 4.273 0 01-4.268-4.267 4.28 4.28 0 012.812-4.012l.021-.01a.892.892 0 00-.425-1.729c-5.148.93-8.884 5.322-8.884 10.442C.03 56.18 4.85 61 10.775 61a10.74 10.74 0 0010.561-8.773.892.892 0 00-.714-1.04zM5.108 43.45a6.026 6.026 0 001.124 6.107 8.516 8.516 0 00-3.529 4.585 8.906 8.906 0 01-.887-3.886c0-2.709 1.265-5.172 3.292-6.806zm5.667 15.766a8.938 8.938 0 01-6.671-2.987 6.712 6.712 0 013.59-5.458 6.015 6.015 0 003.081.846c1.1 0 2.161-.3 3.082-.846a6.713 6.713 0 013.59 5.465 8.954 8.954 0 01-6.672 2.98z"/></g><defs><clipPath id="clip0"><path fill="#fff" d="M0 0h61v61H0z"/></clipPath></defs></svg>