<svg width="70" height="41" viewBox="0 0 70 41" fill="none" xmlns="http://www.w3.org/2000/svg">
<path d="M28.4375 25.6891C15.0566 25.1116 4.37489 14.1109 4.37489 0.587666H0C0 16.4054 12.4468 29.281 28.0765 30.0443C28.1991 30.0661 28.3084 30.1187 28.4375 30.1187H62.5318L55.4399 37.2105C54.589 38.0615 54.589 39.4527 55.4399 40.3037C56.2909 41.1546 57.6821 41.1546 58.5331 40.3037L69.3612 29.4755C69.8009 29.0359 70.0044 28.454 69.9891 27.8743C70.0022 27.2947 69.8009 26.7128 69.3612 26.2731L58.5331 15.445C57.6821 14.594 56.2909 14.594 55.4399 15.445C54.589 16.296 54.589 17.6872 55.4399 18.5382L62.6456 25.7438H61.25H44.9422H28.4375V25.6891Z" fill="#C33A85"/>
</svg>
