<svg width="44" height="44" viewBox="0 0 44 44" fill="none" xmlns="http://www.w3.org/2000/svg">
<path d="M22 0C9.84911 0 0 9.84911 0 22C0 34.1509 9.84911 44 22 44C34.1495 44 44 34.1495 44 22C44 9.84911 34.1495 0 22 0ZM22 41.25C11.3685 41.25 2.75004 32.6315 2.75004 22C2.75004 11.3685 11.3685 2.75004 22 2.75004C32.6315 2.75004 41.25 11.3685 41.25 22C41.25 32.6315 32.6315 41.25 22 41.25Z" fill="#EB4E59"/>
<path d="M32.0375 14.2904L17.8915 28.3099L12.0051 22.5404C11.4633 22.0028 10.5834 22.0028 10.0416 22.5404C9.4985 23.078 9.4985 23.9484 10.0416 24.4847L16.9152 31.2207C17.4789 31.7171 18.3218 31.7721 18.8787 31.2207L34.0022 16.2347C34.544 15.6984 34.544 14.8267 34.0022 14.2904C33.4592 13.7541 32.5806 13.7541 32.0375 14.2904Z" fill="#EB4E59"/>
</svg>
