<svg width="48" height="48" viewBox="0 0 48 48" fill="none" xmlns="http://www.w3.org/2000/svg">
<circle cx="24" cy="23.9998" r="23.5" stroke="#EB4E59"/>
<g clip-path="url(#clip0)">
<path d="M20.9233 18.5534C21.6974 19.3375 21.6974 20.3164 20.9233 21.0955C20.334 21.6898 19.7447 22.2841 19.1454 22.8684C18.9806 23.0282 18.9456 23.1631 19.0555 23.3578C19.2652 23.7424 19.4351 24.1519 19.6648 24.5215C20.7485 26.2445 22.1419 27.6878 23.7101 28.9663C24.4892 29.6005 25.3232 30.1649 26.2621 30.5594C26.4519 30.6393 26.5767 30.6244 26.7315 30.4695C27.3059 29.8752 27.8952 29.2959 28.4845 28.7116C29.3035 27.8975 30.2624 27.8975 31.0865 28.7166C31.5559 29.181 32.0154 29.6455 32.4848 30.11C32.9643 30.5894 33.4487 31.0638 33.9231 31.5483C34.6873 32.3324 34.6873 33.3112 33.9182 34.0903C33.3288 34.6896 32.7245 35.2639 32.1452 35.8732C31.6108 36.4376 30.9566 36.7222 30.1925 36.7822C28.949 36.8771 27.7753 36.5724 26.6317 36.1429C24.2644 35.2639 22.1619 33.9255 20.2341 32.3024C17.6272 30.11 15.5646 27.493 14.0763 24.4316C13.4071 23.0532 12.8927 21.6248 12.8078 20.0717C12.7479 19.0029 13.0175 18.074 13.8516 17.3299C14.4209 16.8205 14.9403 16.2461 15.4847 15.7068C16.2937 14.9077 17.2726 14.9027 18.0716 15.6968C19.0255 16.6457 19.9744 17.5995 20.9233 18.5534Z" fill="#EB4E59"/>
<path d="M24.9037 19.5072L25.2183 17.6644C26.9113 17.954 28.4445 18.7531 29.6631 19.9667C30.9466 21.2502 31.7557 22.8733 32.0054 24.6612L30.1525 24.9209C29.9578 23.5375 29.3335 22.279 28.3396 21.2851C27.4007 20.3462 26.2121 19.732 24.9037 19.5072Z" fill="#EB4E59"/>
<path d="M32.9143 16.6257C35.0419 18.7532 36.3853 21.445 36.7998 24.4166L34.947 24.6763C34.5874 22.1093 33.4237 19.782 31.5909 17.9441C29.8479 16.2012 27.6455 15.0575 25.2233 14.643L25.5379 12.8001C28.3447 13.2846 30.8917 14.608 32.9143 16.6257Z" fill="#EB4E59"/>
</g>
<defs>
<clipPath id="clip0">
<rect width="24" height="24" fill="white" transform="matrix(-4.37114e-08 -1 -1 4.37114e-08 36.7998 36.7998)"/>
</clipPath>
</defs>
</svg>
