<svg width="130" height="130" viewBox="0 0 130 130" fill="none" xmlns="http://www.w3.org/2000/svg">
<path d="M65 0C29.1568 0 0 29.1596 0 65C0 100.84 29.1568 130 65 130C100.843 130 130 100.84 130 65C130 29.1596 100.843 0 65 0ZM65 124.583C32.1455 124.583 5.41658 97.8545 5.41658 65C5.41658 32.1455 32.1455 5.41658 65 5.41658C97.8545 5.41658 124.583 32.1455 124.583 65C124.583 97.8545 97.8545 124.583 65 124.583Z" fill="white"/>
<path d="M90.8403 62.7226L52.9237 38.3476C52.0932 37.8055 51.0194 37.7763 50.1625 38.2471C49.2896 38.7232 48.75 39.6332 48.75 40.6249V89.3749C48.75 90.3667 49.2896 91.2767 50.1625 91.7527C50.5644 91.9724 51.0141 92.0833 51.4584 92.0833C51.9662 92.0833 52.4794 91.9404 52.9237 91.6522L90.8403 67.2772C91.6127 66.7801 92.0834 65.9203 92.0834 64.9999C92.0834 64.0795 91.6127 63.22 90.8403 62.7226ZM54.1666 84.4131V45.5868L84.3657 64.9999L54.1666 84.4131Z" fill="white"/>
</svg>
