<svg width="70" height="41" viewBox="0 0 70 41" fill="none" xmlns="http://www.w3.org/2000/svg">
<path d="M41.5625 25.6891C54.9434 25.1116 65.6251 14.1109 65.6251 0.587666L70 0.587666C70 16.4054 57.5532 29.281 41.9235 30.0443C41.8009 30.0661 41.6916 30.1187 41.5625 30.1187L7.46822 30.1187L14.5601 37.2105C15.411 38.0615 15.411 39.4527 14.5601 40.3037C13.7091 41.1546 12.3179 41.1546 11.4669 40.3037L0.638785 29.4756C0.199111 29.0359 -0.00435748 28.454 0.0109165 27.8743C-0.00217557 27.2947 0.199111 26.7128 0.638785 26.2731L11.4669 15.445C12.3179 14.594 13.7091 14.594 14.56 15.445C15.411 16.296 15.411 17.6872 14.56 18.5382L7.3544 25.7438L8.74996 25.7438L25.0578 25.7438L41.5625 25.7438L41.5625 25.6891Z" fill="#C33A85"/>
</svg>
