<svg width="47" height="47" viewBox="0 0 47 47" fill="none" xmlns="http://www.w3.org/2000/svg">
<path d="M23.5 0C10.5213 0 0 10.5213 0 23.5C0 36.4787 10.5213 47 23.5 47C36.4787 47 47 36.4787 47 23.5C47 10.5213 36.4787 0 23.5 0ZM32.4653 11.9676L29.215 11.969C26.6662 11.969 26.1734 13.1802 26.1734 14.9573V18.876H32.2514L32.2485 25.0136H26.1738V40.7643H19.8342V25.0136H14.5347V18.876H19.8342V14.3495C19.8342 9.0966 23.0437 6.23573 27.7293 6.23573L32.4658 6.24295V11.9676H32.4653Z" fill="#EB4E59"/>
</svg>
