<svg width="47" height="47" viewBox="0 0 47 47" fill="none" xmlns="http://www.w3.org/2000/svg">
<path d="M23.526 28.7466C26.5499 28.7466 29.0013 26.3712 29.0013 23.4409C29.0013 20.5107 26.5499 18.1353 23.526 18.1353C20.5021 18.1353 18.0508 20.5107 18.0508 23.4409C18.0508 26.3712 20.5021 28.7466 23.526 28.7466Z" fill="#EB4E59"/>
<path d="M32.0007 23.7367C32.0007 28.2717 28.2065 31.9475 23.5261 31.9475C18.8457 31.9475 15.0515 28.2717 15.0515 23.7367C15.0515 22.924 15.1741 22.139 15.4012 21.3975H12.897V32.9146C12.897 33.5111 13.3845 33.9983 13.9807 33.9983H32.9667C33.5632 33.9983 34.0511 33.5111 34.0511 32.9146V21.3975H31.651C31.8777 22.139 32.0007 22.924 32.0007 23.7367Z" fill="#EB4E59"/>
<path d="M29.7295 18.2897H32.811C33.4863 18.2897 34.0381 17.7378 34.0381 17.0625V14.1245C34.0381 13.4488 33.4863 12.897 32.811 12.897H29.7295C29.0538 12.897 28.502 13.4488 28.502 14.1245V17.0625C28.5016 17.7374 29.0538 18.2897 29.7295 18.2897Z" fill="#EB4E59"/>
<path d="M23.5 5C13.2827 5 5 13.2827 5 23.5C5 33.7173 13.2827 42 23.5 42C33.7173 42 42 33.7173 42 23.5C42 13.2827 33.7173 5 23.5 5ZM33.6329 37.1327H13.3675C11.442 37.1327 9.86772 35.7075 9.86772 33.6336V13.3671C9.86772 11.2925 11.442 9.86772 13.3675 9.86772H33.6329C35.558 9.86772 37.1327 11.2925 37.1327 13.3671V33.6336C37.1327 35.7075 35.5576 37.1327 33.6329 37.1327Z" fill="#EB4E59"/>
<circle cx="23.5" cy="23.5" r="21" stroke="#EB4E59" stroke-width="5"/>
</svg>
