<svg width="47" height="47" viewBox="0 0 47 47" fill="none" xmlns="http://www.w3.org/2000/svg">
<path d="M19.2178 28.6505C22.7441 26.8219 26.2396 25.0102 29.7674 23.1807C26.2291 21.3343 22.7345 19.512 19.2178 17.6768C19.2178 21.3473 19.2178 24.9804 19.2178 28.6505Z" fill="#EB4E59"/>
<path d="M23.5 0C10.5217 0 0 10.5213 0 23.5C0 36.4787 10.5217 47 23.5 47C36.4783 47 47 36.4787 47 23.5C47 10.5213 36.4783 0 23.5 0ZM39.5117 31.3441C39.105 33.1087 37.6615 34.4103 35.9243 34.604C31.81 35.0642 27.6461 35.0666 23.499 35.0642C19.352 35.0666 15.1871 35.0642 11.0718 34.604C9.33461 34.4103 7.89215 33.1087 7.48634 31.3441C6.90792 28.8304 6.90792 26.0873 6.90792 23.5C6.90792 20.9127 6.91465 18.1687 7.49307 15.6559C7.89888 13.8913 9.34134 12.5893 11.0785 12.395C15.1939 11.9354 19.3587 11.933 23.5058 11.9354C27.6519 11.933 31.8167 11.9354 35.9306 12.395C37.6688 12.5893 39.1122 13.8908 39.518 15.6559C40.0964 18.1692 40.0916 20.9127 40.0916 23.5C40.0916 26.0873 40.0902 28.8308 39.5117 31.3441Z" fill="#EB4E59"/>
</svg>
